<svg id="Layer_1" data-name="Layer 1" xmlns="http://www.w3.org/2000/svg" xmlns:xlink="http://www.w3.org/1999/xlink" viewBox="0 0 26 26"><defs><style>.cls-1{fill:none;}.cls-2{clip-path:url(#clip-path);}.cls-3{fill:#3a3834;}</style><clipPath id="clip-path"><rect class="cls-1" width="26" height="26"/></clipPath></defs><title>instagramm</title><g class="cls-2"><path class="cls-3" d="M13,2.34c3.47,0,3.88,0,5.25.08a7.19,7.19,0,0,1,2.41.45,4,4,0,0,1,1.49,1,4,4,0,0,1,1,1.49,7.19,7.19,0,0,1,.45,2.41c0.06,1.37.08,1.78,0.08,5.25s0,3.88-.08,5.25a7.19,7.19,0,0,1-.45,2.41,4.3,4.3,0,0,1-2.47,2.47,7.19,7.19,0,0,1-2.41.45c-1.37.06-1.78,0.08-5.25,0.08s-3.88,0-5.25-.08a7.19,7.19,0,0,1-2.41-.45,4,4,0,0,1-1.49-1,4,4,0,0,1-1-1.49,7.19,7.19,0,0,1-.45-2.41C2.36,16.88,2.34,16.47,2.34,13s0-3.88.08-5.25a7.19,7.19,0,0,1,.45-2.41,4,4,0,0,1,1-1.49,4,4,0,0,1,1.49-1,7.19,7.19,0,0,1,2.41-.45C9.12,2.36,9.53,2.34,13,2.34M13,0C9.47,0,9,0,7.64.08a9.54,9.54,0,0,0-3.16.6,6.37,6.37,0,0,0-2.3,1.5,6.37,6.37,0,0,0-1.5,2.3,9.54,9.54,0,0,0-.6,3.16C0,9,0,9.47,0,13s0,4,.08,5.36a9.54,9.54,0,0,0,.6,3.16,6.37,6.37,0,0,0,1.5,2.3,6.37,6.37,0,0,0,2.3,1.5,9.54,9.54,0,0,0,3.16.6C9,26,9.47,26,13,26s4,0,5.36-.08a9.54,9.54,0,0,0,3.16-.6,6.65,6.65,0,0,0,3.8-3.8,9.54,9.54,0,0,0,.6-3.16C26,17,26,16.53,26,13s0-4-.08-5.36a9.54,9.54,0,0,0-.6-3.16,6.37,6.37,0,0,0-1.5-2.3,6.37,6.37,0,0,0-2.3-1.5,9.54,9.54,0,0,0-3.16-.6C17,0,16.53,0,13,0"/><path class="cls-3" d="M13,6.32A6.68,6.68,0,1,0,19.68,13,6.68,6.68,0,0,0,13,6.32m0,11A4.33,4.33,0,1,1,17.33,13,4.33,4.33,0,0,1,13,17.33"/><path class="cls-3" d="M21.5,6.06A1.56,1.56,0,1,1,19.94,4.5,1.56,1.56,0,0,1,21.5,6.06"/></g></svg>