<svg id="Слой_1" data-name="Слой 1" xmlns="http://www.w3.org/2000/svg" viewBox="0 0 25.01 25.09"><defs><style>.cls-1,.cls-2{fill:none;stroke-linecap:round;stroke-linejoin:round;stroke-width:0.28px;}.cls-1{stroke:#d5d5d5;}.cls-2{stroke:#f14159;stroke-dasharray:0.28 0.85;}</style></defs><title>contur-porezki</title><polygon class="cls-1" points="4.95 5.04 9.78 5.04 13.2 1.62 16.62 5.04 21.45 5.04 21.45 9.87 24.87 13.29 21.45 16.7 21.45 21.54 16.62 21.54 13.2 24.95 9.78 21.54 4.95 21.54 4.95 16.7 1.53 13.29 4.95 9.87 4.95 5.04 4.95 5.04"/><polygon class="cls-2" points="3.56 3.56 8.39 3.56 11.81 0.14 15.23 3.56 20.06 3.56 20.06 8.39 23.48 11.81 20.06 15.23 20.06 20.06 15.23 20.06 11.81 23.48 8.39 20.06 3.56 20.06 3.56 15.23 0.14 11.81 3.56 8.39 3.56 3.56 3.56 3.56"/></svg>