<?xml version="1.0" encoding="UTF-8"?>
<svg width="46px" height="46px" viewBox="0 0 46 46" version="1.1" xmlns="http://www.w3.org/2000/svg" xmlns:xlink="http://www.w3.org/1999/xlink">
    <!-- Generator: sketchtool 50.2 (55047) - http://www.bohemiancoding.com/sketch -->
    <title>9C9A5A30-55BE-48F6-9206-027317218BB4@1x</title>
    <desc>Created with sketchtool.</desc>
    <defs></defs>
    <g id="Page-1" stroke="none" stroke-width="1" fill="none" fill-rule="evenodd">
        <g id="02-1-PrintLab---Print-2" transform="translate(-497.000000, -2400.000000)" fill-rule="nonzero">
            <g id="06-BASIS" transform="translate(407.000000, 2128.000000)">
                <g id="Transparent" transform="translate(0.000000, 229.000000)">
                    <g id="transparency-copy-2" transform="translate(90.000000, 43.000000)">
                        <path d="M29.46875,0 C20.3533828,0 12.9375,7.41588281 12.9375,16.53125 C12.9375,25.6466172 20.3533828,33.0625 29.46875,33.0625 C38.5841172,33.0625 46,25.6466172 46,16.53125 C46,7.41588281 38.5841172,0 29.46875,0 Z" id="Shape" fill="#55D3FA"></path>
                        <path d="M16.53125,12.9375 C7.41588281,12.9375 0,20.3533828 0,29.46875 C0,38.5841172 7.41588281,46 16.53125,46 C25.6466172,46 33.0625,38.5841172 33.0625,29.46875 C33.0625,20.3533828 25.6466172,12.9375 16.53125,12.9375 Z" id="Shape" fill="#EDEBEC"></path>
                        <path d="M18.6875,44.5625 C9.57213281,44.5625 2.15625,37.1466172 2.15625,28.03125 C2.15625,22.7627227 4.63369141,18.061918 8.48466406,15.0326563 C3.42708984,17.8628242 0,23.2726758 0,29.46875 C0,38.5841172 7.41588281,46 16.53125,46 C20.3780898,46 23.9222461,44.679207 26.7340859,42.4673438 C24.3511602,43.8008047 21.606793,44.5625 18.6875,44.5625 Z" id="Shape" fill="#DCD7D8"></path>
                        <path d="M16.53125,12.9375 C15.4125156,12.9375 14.3196563,13.0498047 13.2626445,13.2626445 C13.0498047,14.3196562 12.9375,15.4125156 12.9375,16.53125 C12.9375,25.6466172 20.3533828,33.0625 29.46875,33.0625 C30.5874844,33.0625 31.6803437,32.9501953 32.7373555,32.7373555 C32.9501953,31.6803437 33.0625,30.5874844 33.0625,29.46875 C33.0625,20.3533828 25.6466172,12.9375 16.53125,12.9375 Z" id="Shape" fill="#7FDEFB"></path>
                        <path d="M46,16.53125 C46,15.5182617 45.9066523,14.4999727 45.7225625,13.5048633 C45.7225625,13.5047734 45.7225625,13.5046836 45.7225625,13.5046836 C45.4654297,12.1157891 45.029418,10.7636406 44.4264766,9.48579297 C44.4263867,9.48552344 44.426207,9.48534375 44.4260273,9.48507422 C43.8777109,8.32285547 43.1913047,7.22280859 42.3858555,6.21548047 C42.3854961,6.21503125 42.3852266,6.21458203 42.3848672,6.21413281 C41.6007109,5.23384766 40.7050586,4.34223828 39.7225273,3.56437109 C38.7110664,2.76341406 37.6054492,2.08141016 36.4363125,1.53722656 C35.1494805,0.938238281 33.7912227,0.508246094 32.3993633,0.259199219 C31.4383047,0.0872382812 30.4522695,0 29.46875,0 C28.7123555,0 27.9456289,0.0529179688 27.1897734,0.157136719 C19.8969766,1.16320703 14.1007969,6.95938672 13.0946367,14.2522734 L13.0946367,14.2524531 C12.9903281,15.0081289 12.9375,15.7749453 12.9375,16.53125 C12.9375,17.5149492 13.0247383,18.5009844 13.1966992,19.4618633 C13.4457461,20.8536328 13.8757383,22.2118906 14.4747266,23.4988125 C15.0189102,24.6679492 15.7008242,25.7735664 16.5017813,26.7850273 C17.2791992,27.7669297 18.1705391,28.6624023 19.1509141,29.4466484 C19.1511836,29.4468281 19.1514531,29.4470977 19.1517227,29.4473672 C20.1593203,30.2531758 21.2599961,30.9400312 22.4233828,31.4889766 C23.7013203,32.091918 25.0533789,32.5279297 26.4421836,32.7850625 C26.4423633,32.7850625 26.4424531,32.7850625 26.4426328,32.7850625 C27.4375625,32.9691523 28.4557617,33.0625 29.46875,33.0625 C30.183457,33.0625 30.9053516,33.0158711 31.6145781,32.9239609 C31.6145781,32.9239609 31.614668,32.9239609 31.6147578,32.9239609 C39.0399844,31.9609258 44.8985156,26.1024844 45.8614609,18.6772578 L45.8614609,18.6770781 C45.9533711,17.9679414 46,17.245957 46,16.53125 Z M26.3358984,31.2986875 C25.5353008,31.1296016 24.7495273,30.8950195 23.9873828,30.5979063 L43.5354063,11.0499727 C43.8325195,11.8120273 44.0671914,12.5978906 44.2361875,13.3983984 L26.3358984,31.2986875 Z M20.6919141,28.8110937 L41.7485039,7.75450391 C42.1799336,8.35708594 42.5665312,8.99057422 42.9042539,9.64805078 L22.5855508,29.9667539 C21.9278945,29.6290312 21.2943164,29.2422539 20.6919141,28.8110937 Z M15.9964102,23.3418555 L36.2793555,3.05891016 C36.9404258,3.39366797 37.5768789,3.77739063 38.1818867,4.20567578 L17.1431758,25.2443867 C16.7148906,24.6393789 16.3312578,24.0028359 15.9964102,23.3418555 Z M14.6818164,19.574168 L32.511668,1.74431641 C33.3147813,1.90882031 34.1042383,2.13962891 34.8712344,2.43404688 L15.3715469,21.9338242 C15.0772188,21.1668281 14.8464102,20.3771914 14.6818164,19.574168 Z M30.7330312,1.48987891 L29.9098828,2.31302734 L14.4273789,17.7956211 C14.3925195,17.3754219 14.375,16.9531563 14.375,16.53125 C14.375,15.9191445 14.4129141,15.2996719 14.4878437,14.6857695 L27.6233594,1.55034375 C28.6602461,1.42375391 29.7035117,1.4044375 30.7330312,1.48987891 Z M25.04125,2.09937891 L15.0367891,12.1038398 C16.5011523,7.33619141 20.2737812,3.56365234 25.04125,2.09937891 Z M18.0356836,26.3848633 L39.3223633,5.09827344 C39.866457,5.56797656 40.3778477,6.07676172 40.8506953,6.61932813 L19.5567383,27.9132852 C19.0141719,27.4402578 18.505207,26.9288672 18.0356836,26.3848633 Z M28.1042031,31.563457 L44.5010469,15.1666133 C44.5419258,15.6205937 44.5625,16.0765508 44.5625,16.53125 C44.5625,17.1038242 44.5297969,17.6813398 44.4651094,18.2517578 L31.1892578,31.5276094 C30.1657578,31.6435977 29.1295898,31.6558164 28.1042031,31.563457 Z M33.7359687,31.0139727 L43.9514727,20.7984688 C42.5100195,25.7101367 38.6476367,29.5725195 33.7359687,31.0139727 Z" id="Shape" fill="#56C4F0"></path>
                    </g>
                </g>
            </g>
        </g>
    </g>
</svg>