<?xml version="1.0" encoding="UTF-8"?>
<svg width="46px" height="46px" viewBox="0 0 46 46" version="1.1" xmlns="http://www.w3.org/2000/svg" xmlns:xlink="http://www.w3.org/1999/xlink">
    <!-- Generator: sketchtool 50.2 (55047) - http://www.bohemiancoding.com/sketch -->
    <title>618003FA-DBC5-4220-9509-CE365E601178@1x</title>
    <desc>Created with sketchtool.</desc>
    <defs></defs>
    <g id="Page-1" stroke="none" stroke-width="1" fill="none" fill-rule="evenodd">
        <g id="02-1-PrintLab---Print-2" transform="translate(-1068.000000, -2400.000000)" fill="#666666" fill-rule="nonzero">
            <g id="06-BASIS" transform="translate(407.000000, 2128.000000)">
                <g id="White" transform="translate(569.000000, 229.000000)">
                    <g id="background" transform="translate(92.000000, 43.000000)">
                        <path d="M9.36483333,32.2 L8.54373333,32.2 C8.11976667,32.2 7.77706667,32.5427 7.77706667,32.9666667 C7.77706667,33.3906333 8.11976667,33.7333333 8.54373333,33.7333333 L9.36483333,33.7333333 C9.7888,33.7333333 10.1315,33.3906333 10.1315,32.9666667 C10.1315,32.5427 9.7888,32.2 9.36483333,32.2 Z" id="Shape"></path>
                        <path d="M5.25703333,32.2 L4.43593333,32.2 C4.01196667,32.2 3.66926667,32.5427 3.66926667,32.9666667 C3.66926667,33.3906333 4.01196667,33.7333333 4.43593333,33.7333333 L5.25703333,33.7333333 C5.681,33.7333333 6.0237,33.3906333 6.0237,32.9666667 C6.0237,32.5427 5.681,32.2 5.25703333,32.2 Z" id="Shape"></path>
                        <path d="M1.46586667,32.2674667 C1.3455,32.0014333 1.07716667,31.8166667 0.766666667,31.8166667 C0.3427,31.8166667 0,32.1593667 0,32.5833333 L0,33.7333333 L1.15,33.7333333 C1.57396667,33.7333333 1.91666667,33.3906333 1.91666667,32.9666667 C1.91666667,32.6561667 1.7319,32.3878333 1.46586667,32.2674667 Z" id="Shape"></path>
                        <path d="M0.766666667,22.0662 C1.19063333,22.0662 1.53333333,21.7235 1.53333333,21.2995333 L1.53333333,20.493 C1.53333333,20.0690333 1.19063333,19.7263333 0.766666667,19.7263333 C0.3427,19.7263333 0,20.0690333 0,20.493 L0,21.2995333 C0,21.7235 0.3427,22.0662 0.766666667,22.0662 Z" id="Shape"></path>
                        <path d="M0.766666667,9.97663333 C1.19063333,9.97663333 1.53333333,9.63393333 1.53333333,9.20996667 L1.53333333,8.4042 C1.53333333,7.98023333 1.19063333,7.63753333 0.766666667,7.63753333 C0.3427,7.63753333 0,7.98023333 0,8.4042 L0,9.20996667 C0,9.63316667 0.3427,9.97663333 0.766666667,9.97663333 Z" id="Shape"></path>
                        <path d="M0.766666667,14.007 C1.19063333,14.007 1.53333333,13.6643 1.53333333,13.2403333 L1.53333333,12.4338 C1.53333333,12.0098333 1.19063333,11.6671333 0.766666667,11.6671333 C0.3427,11.6671333 0,12.0098333 0,12.4338 L0,13.2403333 C0,13.6635333 0.3427,14.007 0.766666667,14.007 Z" id="Shape"></path>
                        <path d="M0.766666667,5.94703333 C1.19063333,5.94703333 1.53333333,5.60433333 1.53333333,5.18036667 L1.53333333,4.37383333 C1.53333333,3.94986667 1.19063333,3.60716667 0.766666667,3.60716667 C0.3427,3.60716667 0,3.94986667 0,4.37383333 L0,5.18036667 C0,5.60433333 0.3427,5.94703333 0.766666667,5.94703333 Z" id="Shape"></path>
                        <path d="M0.766666667,26.0958 C1.19063333,26.0958 1.53333333,25.7531 1.53333333,25.3291333 L1.53333333,24.5233667 C1.53333333,24.0994 1.19063333,23.7567 0.766666667,23.7567 C0.3427,23.7567 0,24.0994 0,24.5233667 L0,25.3291333 C0,25.7531 0.3427,26.0958 0.766666667,26.0958 Z" id="Shape"></path>
                        <path d="M0.766666667,18.0358333 C1.19063333,18.0358333 1.53333333,17.6931333 1.53333333,17.2691667 L1.53333333,16.4634 C1.53333333,16.0394333 1.19063333,15.6967333 0.766666667,15.6967333 C0.3427,15.6967333 0,16.0394333 0,16.4634 L0,17.2691667 C0,17.6931333 0.3427,18.0358333 0.766666667,18.0358333 Z" id="Shape"></path>
                        <path d="M0.766666667,30.1261667 C1.19063333,30.1261667 1.53333333,29.7834667 1.53333333,29.3595 L1.53333333,28.5529667 C1.53333333,28.129 1.19063333,27.7863 0.766666667,27.7863 C0.3427,27.7863 0,28.129 0,28.5529667 L0,29.3595 C0,29.7834667 0.3427,30.1261667 0.766666667,30.1261667 Z" id="Shape"></path>
                        <path d="M1.15,0 L0,0 L0,1.15 C0,1.57396667 0.3427,1.91666667 0.766666667,1.91666667 C1.07716667,1.91666667 1.3455,1.7319 1.46586667,1.46586667 C1.7319,1.3455 1.91666667,1.07716667 1.91666667,0.766666667 C1.91666667,0.3427 1.57396667,0 1.15,0 Z" id="Shape"></path>
                        <path d="M16.4641667,1.53333333 L17.2699333,1.53333333 C17.6939,1.53333333 18.0366,1.19063333 18.0366,0.766666667 C18.0366,0.3427 17.6939,0 17.2699333,0 L16.4641667,0 C16.0402,0 15.6975,0.3427 15.6975,0.766666667 C15.6975,1.19063333 16.0402,1.53333333 16.4641667,1.53333333 Z" id="Shape"></path>
                        <path d="M24.5233667,1.53333333 L25.3291333,1.53333333 C25.7531,1.53333333 26.0958,1.19063333 26.0958,0.766666667 C26.0958,0.3427 25.7531,0 25.3291333,0 L24.5233667,0 C24.0994,0 23.7567,0.3427 23.7567,0.766666667 C23.7567,1.19063333 24.1001667,1.53333333 24.5233667,1.53333333 Z" id="Shape"></path>
                        <path d="M20.493,1.53333333 L21.2995333,1.53333333 C21.7235,1.53333333 22.0662,1.19063333 22.0662,0.766666667 C22.0662,0.3427 21.7235,0 21.2995333,0 L20.493,0 C20.0690333,0 19.7263333,0.3427 19.7263333,0.766666667 C19.7263333,1.19063333 20.0698,1.53333333 20.493,1.53333333 Z" id="Shape"></path>
                        <path d="M28.5529667,1.53333333 L29.3595,1.53333333 C29.7834667,1.53333333 30.1261667,1.19063333 30.1261667,0.766666667 C30.1261667,0.3427 29.7834667,0 29.3595,0 L28.5529667,0 C28.129,0 27.7863,0.3427 27.7863,0.766666667 C27.7863,1.19063333 28.129,1.53333333 28.5529667,1.53333333 Z" id="Shape"></path>
                        <path d="M4.37383333,1.53333333 L5.18036667,1.53333333 C5.60433333,1.53333333 5.94703333,1.19063333 5.94703333,0.766666667 C5.94703333,0.3427 5.60433333,0 5.18036667,0 L4.37383333,0 C3.94986667,0 3.60716667,0.3427 3.60716667,0.766666667 C3.60716667,1.19063333 3.94986667,1.53333333 4.37383333,1.53333333 Z" id="Shape"></path>
                        <path d="M8.4042,1.53333333 L9.20996667,1.53333333 C9.63393333,1.53333333 9.97663333,1.19063333 9.97663333,0.766666667 C9.97663333,0.3427 9.63393333,0 9.20996667,0 L8.4042,0 C7.98023333,0 7.63753333,0.3427 7.63753333,0.766666667 C7.63753333,1.19063333 7.98023333,1.53333333 8.4042,1.53333333 Z" id="Shape"></path>
                        <path d="M12.4338,1.53333333 L13.2403333,1.53333333 C13.6643,1.53333333 14.007,1.19063333 14.007,0.766666667 C14.007,0.3427 13.6643,0 13.2403333,0 L12.4338,0 C12.0098333,0 11.6671333,0.3427 11.6671333,0.766666667 C11.6671333,1.19063333 12.0098333,1.53333333 12.4338,1.53333333 Z" id="Shape"></path>
                        <path d="M32.2674667,1.46586667 C32.3878333,1.7319 32.6561667,1.91666667 32.9666667,1.91666667 C33.3906333,1.91666667 33.7333333,1.57396667 33.7333333,1.15 L33.7333333,0 L32.5833333,0 C32.1593667,0 31.8166667,0.3427 31.8166667,0.766666667 C31.8166667,1.07716667 32.0014333,1.3455 32.2674667,1.46586667 Z" id="Shape"></path>
                        <path d="M33.7333333,4.43593333 C33.7333333,4.01196667 33.3906333,3.66926667 32.9666667,3.66926667 C32.5427,3.66926667 32.2,4.01196667 32.2,4.43593333 L32.2,5.25703333 C32.2,5.681 32.5427,6.0237 32.9666667,6.0237 C33.3906333,6.0237 33.7333333,5.681 33.7333333,5.25703333 L33.7333333,4.43593333 Z" id="Shape"></path>
                        <path d="M32.9666667,7.77706667 C32.5427,7.77706667 32.2,8.11976667 32.2,8.54373333 L32.2,9.36483333 C32.2,9.7888 32.5427,10.1315 32.9666667,10.1315 C33.3906333,10.1315 33.7333333,9.7888 33.7333333,9.36483333 L33.7333333,8.54373333 C33.7333333,8.11976667 33.3906333,7.77706667 32.9666667,7.77706667 Z" id="Shape"></path>
                        <path d="M33.6160333,12.2666667 C33.4826333,12.0412667 33.2480333,11.8833333 32.9666667,11.8833333 C32.6853,11.8833333 32.4507,12.0412667 32.3173,12.2666667 L32.2,12.2666667 L32.2,12.65 L32.2,13.0333333 L32.2,32.2 L13.0333333,32.2 L12.65,32.2 L12.2666667,32.2 L12.2666667,32.3173 C12.0412667,32.4507 11.8833333,32.6860667 11.8833333,32.9666667 C11.8833333,33.2472667 12.0412667,33.4826333 12.2666667,33.6160333 L12.2666667,46 L46,46 L46,12.2666667 L33.6160333,12.2666667 Z" id="Shape"></path>
                    </g>
                </g>
            </g>
        </g>
    </g>
</svg>