<?xml version="1.0" encoding="UTF-8"?>
<svg width="134px" height="56px" viewBox="0 0 134 56" version="1.1" xmlns="http://www.w3.org/2000/svg" xmlns:xlink="http://www.w3.org/1999/xlink">
    <!-- Generator: sketchtool 50.2 (55047) - http://www.bohemiancoding.com/sketch -->
    <title>1A08BE83-C732-4F71-8E17-3CFD6F2AAD5C@1x</title>
    <desc>Created with sketchtool.</desc>
    <defs></defs>
    <g id="Page-1" stroke="none" stroke-width="1" fill="none" fill-rule="evenodd">
        <g id="01-PrintLab---Main-Page-tooltips-v1" transform="translate(-767.000000, -1036.000000)">
            <g id="02-STICKERS-AND-PRICES" transform="translate(469.000000, 744.000000)">
                <g id="1">
                    <g id="Price" transform="translate(97.000000, 291.000000)">
                        <g id="buy-button" transform="translate(200.000000, 0.000000)">
                            <path d="M10.999952,2.031298 C6.02945749,2.031298 2.000008,6.06067401 2.000008,11.030962 L2.000008,47.000996 C2.000008,51.9711573 6.0289228,56.000022 10.999,56.000022 L125.001,56.000022 C129.971077,56.000022 133.999992,51.9711573 133.999992,47.000996 L133.999992,11.030324 C133.999992,6.0601627 129.971077,2.031298 125.001,2.031298 L10.999952,2.031298 Z" id="Rounded-Rectangle-2" stroke="#F58221" stroke-width="2" fill-opacity="0" fill="#000000"></path>
                            <g id="icon-2" transform="translate(56.000000, 17.000000)" fill="#F58221" fill-rule="nonzero">
                                <path d="M23.8670769,9.36092308 C20.0058462,17.5384615 18.7495385,17.5384615 18,17.5384615 L10.6153846,17.5384615 C8.02892308,17.5384615 6.04707692,16.0172308 5.56615385,13.6615385 C5.55138462,13.5895385 4.08923077,6.41261538 3.71538462,4.40769231 C3.53169231,3.42461538 3.06461538,2.76923077 1.38461538,2.76923077 C0.619384615,2.76923077 0,2.14984615 0,1.38461538 C0,0.619384615 0.619384615,0 1.38461538,0 C4.17230769,0 5.96676923,1.38461538 6.43753846,3.89907692 C6.80769231,5.88276923 8.26523077,13.0356923 8.28,13.1086154 C8.57446154,14.5541538 9.86953846,14.7701538 10.6153846,14.7701538 L17.6353846,14.7701538 C18.3895385,13.9596923 20.1083077,10.8369231 21.3627692,8.17846154 C21.6895385,7.48707692 22.5156923,7.19261538 23.2061538,7.51753846 C23.8984615,7.84338462 24.1938462,8.66861538 23.8670769,9.36092308 Z M9.69230769,18.4615385 C8.41753846,18.4615385 7.38461538,19.4944615 7.38461538,20.7692308 C7.38461538,22.044 8.41753846,23.0769231 9.69230769,23.0769231 C10.9670769,23.0769231 12,22.044 12,20.7692308 C12,19.4944615 10.9670769,18.4615385 9.69230769,18.4615385 Z M18,18.4615385 C16.7252308,18.4615385 15.6923077,19.4944615 15.6923077,20.7692308 C15.6923077,22.044 16.7252308,23.0769231 18,23.0769231 C19.2747692,23.0769231 20.3076923,22.044 20.3076923,20.7692308 C20.3076923,19.4944615 19.2747692,18.4615385 18,18.4615385 Z M13.5350769,10.9329231 C13.6273846,11.0076923 13.7409231,11.0436923 13.8544615,11.0436923 C13.968,11.0436923 14.0796923,11.0076923 14.1738462,10.9329231 C14.2661538,10.86 16.7843077,8.40369231 18.1578462,6.36 C18.264,6.20123077 18.2741538,5.99815385 18.1836923,5.83015385 C18.096,5.66307692 17.9206154,5.55784615 17.7313846,5.55784615 L15.6766154,5.55784615 C15.6766154,5.55784615 15.4763077,1.59692308 15.3452308,1.41323077 C15.1550769,1.14184615 14.3695385,0.957230769 13.8535385,0.957230769 C13.3356923,0.957230769 12.5363077,1.14184615 12.3452308,1.41323077 C12.2150769,1.596 12.0424615,5.55784615 12.0424615,5.55784615 L9.96092308,5.55784615 C9.77076923,5.55784615 9.59630769,5.66307692 9.50676923,5.83015385 C9.41723077,5.99815385 9.42738462,6.20215385 9.53261538,6.36 C10.9070769,8.40461538 13.4436923,10.86 13.5350769,10.9329231 Z" id="Shape"></path>
                            </g>
                        </g>
                    </g>
                </g>
            </g>
        </g>
    </g>
</svg>