<?xml version="1.0" encoding="UTF-8"?>
<svg width="29px" height="29px" viewBox="0 0 29 29" version="1.1" xmlns="http://www.w3.org/2000/svg" xmlns:xlink="http://www.w3.org/1999/xlink">
    <!-- Generator: sketchtool 50.2 (55047) - http://www.bohemiancoding.com/sketch -->
    <title>727130C5-393E-436F-B205-23CD8454D102@1x</title>
    <desc>Created with sketchtool.</desc>
    <defs></defs>
    <g id="Page-1" stroke="none" stroke-width="1" fill="none" fill-rule="evenodd">
        <g id="02-1-PrintLab---Print" transform="translate(-1015.000000, -672.000000)">
            <g id="02-SHAPE" transform="translate(-1.000000, 483.000000)">
                <g id="Simple-shape" transform="translate(977.000000, 134.000000)">
                    <g id="checkmark" transform="translate(39.000000, 55.000000)">
                        <g id="sticker">
                            <path d="M14.4827586,29 C6.48414601,29 0,22.515854 0,14.5172414 C0,6.51862877 6.48414601,0.0344827586 14.4827586,0.0344827586 L28.9655172,14.5172414 C28.9655172,22.515854 22.4813712,29 14.4827586,29 Z" id="Shape" fill="#FFBE99" fill-rule="nonzero"></path>
                            <path d="M16.180037,2.16244111 C15.6901949,2.10479602 15.1921096,2.07430792 14.6867411,2.07430792 C7.70203011,2.07430792 2.03982516,7.73651287 2.03982516,14.7212239 C2.03982516,21.7059349 7.70203011,27.3681399 14.6867411,27.3681399 C21.6714522,27.3681399 27.3336571,21.7059349 27.3336571,14.7212239 C27.3336571,14.2159119 27.3031126,13.7178266 27.2455239,13.227928 L16.180037,2.16244111 Z" id="Shape" fill="#F79258" fill-rule="nonzero"></path>
                            <g id="Group" transform="translate(13.171442, 0.034483)" fill="#EBF4D6" fill-rule="nonzero">
                                <path d="M0.13056338,0.0432479359 C0.962168345,1.51729116 1.27411246,2.90246722 1.59990813,4.35070847 C2.06773915,6.42977113 2.55140863,8.57952101 4.52009104,10.783359 C6.33964202,12.8203029 8.61799779,13.4485837 11.0301574,14.1138453 C12.5500263,14.5330002 14.1090089,14.9631648 15.7327646,15.7785521 C15.7726162,15.3421206 15.7940748,14.9003819 15.7940748,14.4536183 L1.26128273,0 C0.880762002,0 0.50370417,0.014679456 0.13056338,0.0432479359 Z" id="Shape"></path>
                            </g>
                            <path d="M14.5819546,0.0344827586 C14.2053413,0.0344827586 13.6828924,0.00567533478 13.3135832,0.0344827586 C13.7046368,0.740685324 13.943672,1.46822204 14.1945246,2.16073331 C14.4716511,2.9257774 14.5819546,3.74742316 14.9171029,4.42158014 C15.2522511,5.09573712 15.2752311,6.04151381 15.53981,6.86628288 L20.4253331,6.86628288 C20.673562,6.86628288 20.8748195,7.07021211 20.8748195,7.32173622 L20.8748195,13.1354273 C21.9430799,13.6176386 23.080786,13.9378223 24.2504618,14.2664888 C25.754724,14.6891495 27.2976982,15.1229118 28.9047804,15.945119 C28.944279,15.5049233 28.9655172,15.05949 28.9655172,14.6089897 L20.4252769,8.23269983 L14.5819546,0.0344827586 Z" id="Shape" fill="#FF9C63" fill-rule="nonzero"></path>
                            <path d="M27.2450295,13.4419118 L16.1174717,2.16413196 C15.6248819,2.10538094 15.1240027,2.07430792 14.6157993,2.07430792 C14.5031555,2.07430792 14.2847638,2.16113974 14.1726877,2.16413196 C14.4669584,3.02577528 14.6608797,3.90800105 14.8538619,4.78259146 C15.0334448,5.59595652 15.2172844,6.30443918 15.4846433,7.13805924 C15.6806339,8.03908002 15.9357703,8.74044731 16.2500525,9.24216113 C16.7214758,9.99473184 17.1942045,10.5775805 18.5512026,11.6834854 C19.455868,12.4207553 20.2075393,12.8843279 20.8062166,13.0742031 C21.8857016,13.5615892 23.2693041,13.979869 24.45127,14.3120626 C25.4116954,14.5819951 26.3355324,14.8261486 27.3336571,15.2011539 C27.3418897,15.011033 27.3336571,15.1560491 27.3336571,14.9639143 C27.3336571,14.4488502 27.3029412,13.9412092 27.2450295,13.4419118 Z" id="Shape" fill="#D87238" fill-rule="nonzero"></path>
                            <path d="M14.586531,0.0433011722 L28.5575522,14.3132589 C24.4120777,11.5495906 20.7360737,12.3094334 18.4242506,9.70718226 C15.7216018,6.66513364 17.3501993,3.72811783 14.586531,0.0433011722 Z" id="Shape" fill="#FEEEE5" fill-rule="nonzero"></path>
                            <g id="check" transform="translate(9.000000, 11.000000)">
                                <path d="M11.6485032,2.11306425 L5.31800702,8.63754656 C4.84922614,9.12081781 4.08878964,9.12081781 3.61956461,8.63754656 L0.351718905,5.2690834 C-0.117239635,4.78581215 -0.117239635,4.00192695 0.351718905,3.51856415 C0.820766274,3.03510978 1.58114355,3.03510978 2.04998365,3.51838103 L4.4690375,6.01176769 L9.94997193,0.36245345 C10.4190193,-0.121000914 11.1794558,-0.120634684 11.6483255,0.36245345 C12.1171952,0.845816256 12.1171952,1.62942678 11.6485032,2.11306425 Z" id="Shape" fill="#FEEEE5" fill-rule="nonzero"></path>
                                <path d="M9.57881741,0.733168171 C9.99178334,1.05472821 10.3655455,1.31784738 10.700104,1.52252568 C11.0346625,1.72720398 11.3684686,1.8969654 11.7015222,2.03180995 C12.2213568,1.31402263 12.1611466,0.723169937 11.5208916,0.259251881 C10.8806365,-0.204666176 10.2332785,-0.0466940791 9.57881741,0.733168171 Z" id="Path-2" fill="#F59E6D"></path>
                            </g>
                        </g>
                    </g>
                </g>
            </g>
        </g>
    </g>
</svg>