<?xml version="1.0" encoding="UTF-8"?>
<svg width="12px" height="7px" viewBox="0 0 12 7" version="1.1" xmlns="http://www.w3.org/2000/svg" xmlns:xlink="http://www.w3.org/1999/xlink">
    <!-- Generator: sketchtool 50.2 (55047) - http://www.bohemiancoding.com/sketch -->
    <title>8420DE0F-FF31-4E18-AA2A-C08217159722</title>
    <desc>Created with sketchtool.</desc>
    <defs></defs>
    <g id="Page-1" stroke="none" stroke-width="1" fill="none" fill-rule="evenodd">
        <g id="01-PrintLab---Main-Page-tooltips-v1" transform="translate(-875.000000, -978.000000)" fill="#F79258">
            <g id="02-STICKERS-AND-PRICES" transform="translate(469.000000, 744.000000)">
                <g id="1">
                    <g id="Dropdown" transform="translate(296.000000, 222.000000)">
                        <path d="M116.006806,16.574358 L120.288976,12.317744 C120.683232,11.92566 121.323232,11.92566 121.717968,12.317744 C122.112944,12.710466 122.112944,13.347036 121.717968,13.739758 L116.74244,18.6858952 C116.735646,18.6930668 116.728726,18.7001633 116.72168,18.707182 C116.709837,18.7189379 116.697774,18.7303414 116.685504,18.7413924 C116.288796,19.1060984 115.67005,19.0968326 115.284624,18.713595 C115.250825,18.6799836 115.219924,18.64458 115.191921,18.6076908 L110.28904,13.732058 C109.894064,13.339974 109.894064,12.703404 110.28904,12.310682 C110.684016,11.918598 111.323296,11.918598 111.718752,12.310682 L116.006806,16.574358 Z" id="Combined-shape-9602" transform="translate(116.000000, 15.500000) rotate(-180.000000) translate(-116.000000, -15.500000) "></path>
                    </g>
                </g>
            </g>
        </g>
    </g>
</svg>