<?xml version="1.0" encoding="UTF-8"?>
<svg width="499px" height="703px" viewBox="0 0 499 703" version="1.1" xmlns="http://www.w3.org/2000/svg" xmlns:xlink="http://www.w3.org/1999/xlink">
    <!-- Generator: sketchtool 50.2 (55047) - http://www.bohemiancoding.com/sketch -->
    <title>6A3AEED4-0994-451B-AB42-8FFD013FCE47</title>
    <desc>Created with sketchtool.</desc>
    <defs>
        <linearGradient x1="16.4723628%" y1="-6.66500034%" x2="71.5864709%" y2="102.318138%" id="linearGradient-1">
            <stop stop-color="#FEF0ED" offset="0%"></stop>
            <stop stop-color="#FAB7A6" offset="100%"></stop>
        </linearGradient>
    </defs>
    <g id="Page-1" stroke="none" stroke-width="1" fill="none" fill-rule="evenodd">
        <g id="01-PrintLab---Main-Page" transform="translate(-1065.000000, -4775.000000)" fill="url(#linearGradient-1)">
            <g id="07-DESIGN" transform="translate(404.000000, 4765.000000)">
                <path d="M667,50.0241662 C711.889272,-2.07467201 772.3057,0.809948323 848.249282,58.6780272 C898.602241,97.0463643 918.364244,34.4897328 959.512575,25.5597934 C1011.45564,14.2871982 1089.61711,20.1778996 1118.73963,88.8911976 C1134.31663,125.64443 1166.15012,193.83993 1154.48523,247.608589 C1140.7016,311.143457 1099.09906,270.094947 1089.04446,370.099186 C1079.90786,460.972913 1181.08435,466.995216 1147.90824,544.504278 C1124.3317,599.585951 1175.20485,634.974938 1116.99114,688.738763 C1071.19826,731.031209 1065.50408,698.492306 1004.77319,690.698811 C899.516388,677.19138 875.459652,698.771222 809.493401,694.109655 C765.5159,691.001943 718.0181,691.001943 667,694.109655 L667,50.0241662 Z" id="Path-6-Copy-3" transform="translate(912.000000, 361.500000) rotate(-359.000000) translate(-912.000000, -361.500000) "></path>
            </g>
        </g>
    </g>
</svg>