<?xml version="1.0" encoding="UTF-8"?>
<svg width="16px" height="16px" viewBox="0 0 16 16" version="1.1" xmlns="http://www.w3.org/2000/svg" xmlns:xlink="http://www.w3.org/1999/xlink">
    <!-- Generator: sketchtool 51.2 (57519) - http://www.bohemiancoding.com/sketch -->
    <title>24E929AC-4975-447F-9BE7-9BB19E6104D8@1x</title>
    <desc>Created with sketchtool.</desc>
    <defs></defs>
    <g id="Requirements" stroke="none" stroke-width="1" fill="none" fill-rule="evenodd">
        <g id="printlab_requirements" transform="translate(-452.000000, -17.000000)" fill-rule="nonzero">
            <g id="email" transform="translate(452.000000, 17.000000)">
                <path d="M16,15.3404403 C16,15.5383051 15.9333268,15.7032187 15.8000124,15.835118 C15.666666,15.9340661 15.5333515,16 15.333332,16 L0.666667996,16 C0.500016947,16 0.333333998,15.9340346 0.199987638,15.835118 C0.0666412788,15.7031871 0,15.5383051 0,15.3404403 L0,5.67741935 L16,5.67741935 L16,15.3404403 Z" id="Shape" fill="#FCCD90"></path>
                <path d="M15.7419355,15.8308951 C15.609582,15.9323775 15.4772602,16 15.2787299,16 L0.721270092,16 C0.555859884,16 0.390418013,15.9323451 0.258064516,15.8308951 L7.99998417,9.03225806 L15.7419355,15.8308951 Z" id="Shape" fill="#FAB745"></path>
                <path d="M16,5.54837125 L13.7333352,7.17148297 L8.43332782,10.9477221 C8.166667,11.1464582 7.79999641,11.1464582 7.53333559,10.9477221 L2.26666481,7.17148297 L0,5.54837125 L2.26666481,3.92525952 L7.2000016,0.414044071 L7.56667218,0.149052061 C7.833333,-0.0496840204 8.20000359,-0.0496840204 8.46666441,0.149052061 L8.83333499,0.414044071 L11.2000096,2.10341172 L12.3666626,2.93151571 L13.7333352,3.92525952 L16,5.54837125 Z" id="Shape" fill="#95C242"></path>
                <path d="M13.6774194,2.59985949 L13.6774194,7.37223394 L8.42910168,11.2036103 C8.16504154,11.4052482 7.801947,11.4052482 7.53788686,11.2036103 L2.32258065,7.37223394 L2.32258065,1.18829807 C2.32258065,0.818601884 2.61965225,0.516129032 2.98274679,0.516129032 L11.5978865,0.516129032 L13.6774194,2.59985949 Z" id="Shape" fill="#F2F2F2"></path>
                <path d="M11.6129351,2.0478812 C11.6129351,2.34756491 11.8460153,2.58064516 12.1456991,2.58064516 L13.6774194,2.58064516 L11.6129032,0.516129032 L11.6129351,2.0478812 Z" id="Shape" fill="#CDD6E0"></path>
                <path d="M9.79958241,7.11398684 L10.3225806,7.11398684 C10.1591554,7.47356215 9.89762502,7.73506294 9.538052,7.93118071 C9.14578768,8.15998999 8.65548074,8.25806452 8.0670999,8.25806452 C7.51141036,8.25806452 7.02107214,8.15998999 6.62880782,7.96387222 C6.2365435,7.76775445 5.90966178,7.50622238 5.71354526,7.11398684 C5.51742874,6.75441152 5.41935484,6.32945319 5.41935484,5.90452614 C5.41935484,5.41421607 5.51742874,4.98925774 5.74623656,4.56429941 C5.97504438,4.13934107 6.2692348,3.84514878 6.66149912,3.64903101 C7.05376344,3.45291324 7.51137908,3.35483871 8.0017173,3.35483871 C8.42667292,3.35483871 8.81890596,3.45291324 9.14578768,3.6163395 C9.4726694,3.77976576 9.73416852,4.00860632 9.89762502,4.33549013 C10.0610502,4.62968242 10.1591241,4.98925774 10.1591241,5.34883305 C10.1591241,5.77379139 10.0283589,6.16602693 9.76685982,6.52560224 C9.4399781,6.98325208 9.01502248,7.17936985 8.49202424,7.17936985 C8.36125904,7.17936985 8.23052512,7.14667835 8.16514252,7.11398684 C8.09975992,7.04860382 8.03437732,6.9832208 8.03437732,6.88517756 C7.8382608,7.08129533 7.6094217,7.17936985 7.34792258,7.17936985 C7.05373216,7.17936985 6.82492434,7.08129533 6.66146784,6.88517756 C6.46535132,6.68905979 6.36727742,6.42752772 6.36727742,6.10064391 C6.36727742,5.70837709 6.46535132,5.34880177 6.69415914,4.98922646 C6.95565826,4.59695963 7.31523128,4.40084186 7.7401869,4.40084186 C8.03437732,4.40084186 8.26318514,4.5316079 8.42664164,4.76041718 L8.49202424,4.46622488 L9.17847898,4.46622488 L8.78621466,6.29676168 C8.75352336,6.42752772 8.75352336,6.49287945 8.75352336,6.52557096 C8.75352336,6.55826247 8.75352336,6.59095398 8.78621466,6.62364549 C8.81890596,6.656337 8.81890596,6.656337 8.85159726,6.656337 C8.91697986,6.656337 9.04771378,6.59095398 9.17847898,6.49291073 C9.3419042,6.3621447 9.5053607,6.19871844 9.6034346,5.96990916 C9.7015085,5.74109988 9.76685982,5.51225932 9.76685982,5.28345004 C9.76685982,4.8584917 9.6034346,4.49891639 9.3092129,4.2374156 C9.01502248,3.9432233 8.59006686,3.81245727 8.03437732,3.81245727 C7.5767304,3.81245727 7.18449736,3.91053179 6.85761564,4.10664956 C6.53073392,4.30276733 6.3019261,4.56429941 6.1384696,4.89118321 C5.97501309,5.21806702 5.90966178,5.57764233 5.90966178,5.96990916 C5.90966178,6.32948447 6.00773568,6.65636828 6.1711609,6.95056058 C6.36727742,7.24475287 6.59611652,7.47356215 6.92299824,7.60432819 C7.24987996,7.73509422 7.60945298,7.80044596 8.0344086,7.80044596 C8.42667292,7.80044596 8.78624594,7.73506294 9.08043636,7.6370197 C9.37462678,7.50622238 9.6034346,7.34279612 9.79958241,7.11398684 Z M7.02107214,6.0679524 C7.02107214,6.29676168 7.05376344,6.42752772 7.15183734,6.55826247 C7.24991124,6.656337 7.34795386,6.72168873 7.47871906,6.72168873 C7.57679296,6.72168873 7.67483558,6.68899722 7.74021818,6.65630571 C7.80560078,6.6236142 7.87098338,6.55823118 7.9363347,6.49287945 C8.0344086,6.39480492 8.0997912,6.23137866 8.16514252,6.03522961 C8.23052512,5.83911184 8.26321642,5.64296278 8.26321642,5.47953652 C8.26321642,5.28341875 8.23052512,5.15265272 8.13245122,5.02188668 C8.03437732,4.92381215 7.9363347,4.85846042 7.8055695,4.85846042 C7.6748043,4.85846042 7.51137908,4.92384344 7.41330518,5.02188668 C7.28253998,5.11996121 7.18449736,5.28338747 7.11911476,5.51219675 C7.05376344,5.70837709 7.02107214,5.90449486 7.02107214,6.0679524 Z" id="Shape" fill="#EF7512"></path>
            </g>
        </g>
    </g>
</svg>