<?xml version="1.0" encoding="UTF-8"?>
<svg width="25px" height="25px" viewBox="0 0 25 25" version="1.1" xmlns="http://www.w3.org/2000/svg" xmlns:xlink="http://www.w3.org/1999/xlink">
    <!-- Generator: sketchtool 50.2 (55047) - http://www.bohemiancoding.com/sketch -->
    <title>48AC7C26-9E43-4E8E-BA2A-4AEFFDCFA782</title>
    <desc>Created with sketchtool.</desc>
    <defs></defs>
    <g id="Page-1" stroke="none" stroke-width="1" fill="none" fill-rule="evenodd">
        <g id="01-PrintLab---Main-Page-(1)" transform="translate(-871.000000, -1233.000000)" fill="#ABC6D8" fill-rule="nonzero">
            <g id="information" transform="translate(871.000000, 1233.000000)">
                <path d="M11.0730594,8.15068493 C11.1187215,8.24200913 11.1643836,8.33333333 11.2100457,8.40182648 C11.2557078,8.47031963 11.3242009,8.53881279 11.369863,8.60730594 C11.4383562,8.67579909 11.5068493,8.74429224 11.5981735,8.81278539 C11.6666667,8.85844749 11.7579909,8.92694064 11.8721461,8.94977169 C11.9634703,8.99543379 12.0547945,9.01826484 12.1689498,9.04109589 C12.283105,9.06392694 12.3744292,9.06392694 12.4657534,9.06392694 C12.5570776,9.06392694 12.6712329,9.06392694 12.7625571,9.04109589 C12.8538813,9.01826484 12.9452055,8.99543379 13.0136986,8.94977169 L13.0365297,8.94977169 C13.1278539,8.90410959 13.2191781,8.85844749 13.3105023,8.78995434 C13.3789954,8.74429224 13.4474886,8.67579909 13.5159817,8.60730594 L13.5388128,8.58447489 C13.6073059,8.51598174 13.652968,8.44748858 13.6986301,8.37899543 C13.7442922,8.31050228 13.7899543,8.24200913 13.8127854,8.15068493 C13.8127854,8.12785388 13.8127854,8.12785388 13.8356164,8.10502283 C13.8812785,8.01369863 13.9041096,7.89954338 13.9269406,7.80821918 C13.9497717,7.71689498 13.9497717,7.60273973 13.9497717,7.51141553 C13.9497717,7.42009132 13.9497717,7.30593607 13.9269406,7.21461187 C13.9041096,7.12328767 13.8812785,7.03196347 13.8356164,6.91780822 C13.7671233,6.75799087 13.6757991,6.62100457 13.5616438,6.50684932 C13.5388128,6.48401826 13.5388128,6.48401826 13.5159817,6.46118721 C13.4474886,6.39269406 13.3789954,6.34703196 13.2876712,6.27853881 C13.196347,6.23287671 13.1278539,6.18721461 13.0365297,6.14155251 C12.9452055,6.09589041 12.8538813,6.07305936 12.7625571,6.05022831 C12.6484018,6.02739726 12.5570776,6.02739726 12.4657534,6.02739726 C12.3744292,6.02739726 12.260274,6.02739726 12.1689498,6.05022831 C12.0776256,6.07305936 11.9863014,6.09589041 11.8949772,6.14155251 L11.8721461,6.14155251 C11.7808219,6.18721461 11.6894977,6.23287671 11.6210046,6.27853881 C11.5296804,6.34703196 11.4611872,6.39269406 11.3926941,6.46118721 C11.3242009,6.52968037 11.2557078,6.59817352 11.2100457,6.66666667 C11.1643836,6.73515982 11.1187215,6.82648402 11.0730594,6.91780822 C11.0273973,7.00913242 11.0045662,7.10045662 10.9817352,7.19178082 C10.9589041,7.30593607 10.9589041,7.39726027 10.9589041,7.48858447 C10.9589041,7.57990868 10.9589041,7.69406393 10.9817352,7.78538813 C11.0045662,7.96803653 11.0502283,8.05936073 11.0730594,8.15068493 Z" id="Shape"></path>
                <path d="M14.2465753,16.5068493 L13.7214612,16.5068493 L13.7214612,10.913242 C13.7214612,10.5936073 13.4703196,10.3196347 13.1278539,10.3196347 L10.7305936,10.3196347 C10.4109589,10.3196347 10.1369863,10.5707763 10.1369863,10.913242 L10.1369863,12.1461187 C10.1369863,12.4657534 10.3881279,12.739726 10.7305936,12.739726 L11.2100457,12.739726 L11.2100457,16.5296804 L10.7305936,16.5296804 C10.4109589,16.5296804 10.1369863,16.7808219 10.1369863,17.1232877 L10.1369863,18.3561644 C10.1369863,18.6757991 10.3881279,18.9497717 10.7305936,18.9497717 L14.2465753,18.9497717 C14.56621,18.9497717 14.8401826,18.6986301 14.8401826,18.3561644 L14.8401826,17.1232877 C14.8401826,16.7808219 14.56621,16.5068493 14.2465753,16.5068493 Z" id="Shape"></path>
                <path d="M12.4885845,0 C5.59360731,0 0,5.59360731 0,12.4885845 C0,19.3835616 5.59360731,24.9771689 12.4885845,24.9771689 C19.3835616,24.9771689 24.9771689,19.3835616 24.9771689,12.4885845 C24.9771689,5.59360731 19.3835616,0 12.4885845,0 Z M12.4885845,23.3333333 C6.50684932,23.3333333 1.64383562,18.4703196 1.64383562,12.4885845 C1.64383562,6.50684932 6.50684932,1.64383562 12.4885845,1.64383562 C18.4703196,1.64383562 23.3333333,6.50684932 23.3333333,12.4885845 C23.3333333,18.4703196 18.4703196,23.3333333 12.4885845,23.3333333 Z" id="Shape"></path>
            </g>
        </g>
    </g>
</svg>