<?xml version="1.0" encoding="utf-8"?>
<!-- Generator: Adobe Illustrator 21.0.2, SVG Export Plug-In . SVG Version: 6.00 Build 0)  -->
<svg version="1.1" id="Слой_1" xmlns="http://www.w3.org/2000/svg" xmlns:xlink="http://www.w3.org/1999/xlink" x="0px" y="0px"
	 viewBox="0 0 1421.1 950.8" style="enable-background:new 0 0 1421.1 950.8;" xml:space="preserve">
<style type="text/css">
	.st0{fill:#79AC57;}
</style>
<title>nakleykina-arrow-example-black</title>
<path class="st0" d="M11.9,934.4c-0.6-2.3-233.2-799.4,1386.9-803.7c12.2-0.1,22.1,9.8,22.2,22c0.1,12.2-9.8,22.1-22,22.2
	C-163,179.1,54,920.9,54.6,923c3.1,11.8-3.9,23.9-15.6,27C27.2,953.2,15.1,946.2,11.9,934.4L11.9,934.4L11.9,934.4z"/>
<path class="st0" d="M1167.5,294.8L1358,155.4l-205.4-114c-10.7-5.9-14.6-19.3-8.7-30c5.9-10.7,19.3-14.6,30-8.7l0,0l234.9,130.3
	c10.9,5.5,15.3,18.8,9.9,29.7c-1.6,3.1-3.9,5.9-6.7,7.9l-218.4,159.8c-9.9,7.1-23.7,4.8-30.8-5.1
	C1155.7,315.6,1157.9,302,1167.5,294.8L1167.5,294.8z"/>
</svg>
