<svg id="Слой_1" data-name="Слой 1" xmlns="http://www.w3.org/2000/svg" viewBox="0 0 1421.05 950.84"><defs><style>.cls-1{fill:#3a3834;}</style></defs><title>nakleykina-arrow-example-black</title><path class="cls-1" d="M11.91,934.44c-0.62-2.29-233.23-799.36,1386.88-803.66a22.07,22.07,0,1,1,.21,44.14C-163,179.06,54,920.91,54.6,923a22.09,22.09,0,0,1-42.69,11.4h0Z"/><path class="cls-1" d="M1167.49,294.84L1358,155.44l-205.36-114A22.09,22.09,0,1,1,1174,2.76l234.86,130.32A22.11,22.11,0,0,1,1412,170.7L1193.58,330.54a22.11,22.11,0,0,1-26.09-35.7h0Z"/></svg>