<?xml version="1.0" encoding="UTF-8"?>
<svg width="124px" height="64px" viewBox="0 0 124 64" version="1.1" xmlns="http://www.w3.org/2000/svg" xmlns:xlink="http://www.w3.org/1999/xlink">
    <!-- Generator: sketchtool 51.1 (57501) - http://www.bohemiancoding.com/sketch -->
    <title>465629C4-CD48-4D6D-BF6A-57C7A8DD2E5D@1x</title>
    <desc>Created with sketchtool.</desc>
    <defs></defs>
    <g id="Page-1" stroke="none" stroke-width="1" fill="none" fill-rule="evenodd">
        <g id="contours" transform="translate(-666.000000, -656.000000)">
            <g id="Accent-Copy" transform="translate(667.000000, 657.000000)">
                <g id="Accent_hovered">
                    <path d="M20.8759472,60.9996669 C9.33505131,60.9376775 0,52.2311293 0,41.5 C0,38.7907084 0.595027957,36.2104661 1.67035514,33.865807 C1.23113418,31.9742028 1,30.0118811 1,28 C1,12.536027 14.6553151,0 31.5,0 C46.1013025,0 58.3061886,9.41927197 61.2981089,22 L115,22 C118.865993,22 122,25.1340068 122,29 L122,54.3277311 C122,58.1937243 118.865993,61.3277311 115,61.3277311 L23,61.3277311 C22.2595005,61.3277311 21.5458562,61.2127498 20.8759472,60.9996669 Z" id="Combined-Shape" stroke="#231F20" stroke-width="2"></path>
                    <path d="M24.9297831,54.4531928 C24.5122363,54.4841988 24.0900726,54.5 23.6639344,54.5 C15.0129823,54.5 8,47.987945 8,39.954918 C8,37.8757357 8.46981776,35.8984473 9.31625252,34.1095962 C8.94293762,32.5897646 8.74590164,31.0086293 8.74590164,29.3852459 C8.74590164,17.5745007 19.1752685,8 32.0405445,8 C44.3988995,8 54.5095241,16.8348514 55.2871004,28 L109,28 C112.865993,28 116,31.1340068 116,35 L116,47.7444552 C116,51.6104484 112.865993,54.7444552 109,54.7444552 L26.9344262,54.7444552 C26.237756,54.7444552 25.5648562,54.6426822 24.9297831,54.4531928 Z" id="Combined-Shape" fill="#F79258"></path>
                </g>
            </g>
        </g>
    </g>
</svg>