<?xml version="1.0" encoding="UTF-8"?>
<svg width="71px" height="71px" viewBox="0 0 71 71" version="1.1" xmlns="http://www.w3.org/2000/svg" xmlns:xlink="http://www.w3.org/1999/xlink">
    <!-- Generator: sketchtool 50.2 (55047) - http://www.bohemiancoding.com/sketch -->
    <title>B10714CC-A2EB-4947-BA5E-E432BDCB67BB@1x</title>
    <desc>Created with sketchtool.</desc>
    <defs></defs>
    <g id="Page-1" stroke="none" stroke-width="1" fill="none" fill-rule="evenodd">
        <g id="02-2-PrintLab----Design2" transform="translate(-1032.000000, -1230.000000)">
            <g id="02-DESIGN&amp;CONTOUR" transform="translate(0.000000, 485.000000)">
                <g id="2-nd-form" transform="translate(622.000000, 328.000000)">
                    <g id="Shapes" transform="translate(32.000000, 418.000000)">
                        <g id="Star" transform="translate(379.000000, 0.000000)">
                            <g id="Star-2">
                                <path d="M35,63 L23.029295,67.8892417 L17.0019469,56.4492444 L4.68911087,52.5 L7.42538292,39.862149 L0.531728645,28.9223138 L10.7512887,21 L12.5024337,8.18844449 L25.423436,8.68860662 L35,0 L44.576564,8.68860662 L57.4975663,8.18844449 L59.2487113,21 L69.4682714,28.9223138 L62.5746171,39.862149 L65.3108891,52.5 L52.9980531,56.4492444 L46.970705,67.8892417 L35,63 Z" stroke="#ABC6D8" stroke-width="2" stroke-linecap="round" stroke-dasharray="5,5"></path>
                                <polygon fill="#FFD8C2" points="35 56.4711221 26.3175911 60 21.9459271 51.7430236 13.015369 48.8926018 15 39.7710578 10 31.8750803 17.4122952 26.1570407 18.6824089 16.9101232 28.0540729 17.2711221 35 11 41.9459271 17.2711221 51.3175911 16.9101232 52.5877048 26.1570407 60 31.8750803 55 39.7710578 56.984631 48.8926018 48.0540729 51.7430236 43.6824089 60"></polygon>
                            </g>
                        </g>
                    </g>
                </g>
            </g>
        </g>
    </g>
</svg>