<?xml version="1.0" encoding="UTF-8"?>
<svg width="72px" height="72px" viewBox="0 0 72 72" version="1.1" xmlns="http://www.w3.org/2000/svg" xmlns:xlink="http://www.w3.org/1999/xlink">
    <!-- Generator: sketchtool 51.1 (57501) - http://www.bohemiancoding.com/sketch -->
    <title>E8A69153-B0E7-46D5-BFEC-30DA59C4296E@1x</title>
    <desc>Created with sketchtool.</desc>
    <defs></defs>
    <g id="Page-1" stroke="none" stroke-width="1" fill="none" fill-rule="evenodd">
        <g id="contours" transform="translate(-666.000000, -189.000000)">
            <g id="Star-Copy" transform="translate(667.000000, 191.000000)">
                <g id="Star_hovered">
                    <polygon id="Star-2" stroke="#231F20" stroke-width="2" points="35 63 23.029295 67.8892417 17.0019469 56.4492444 4.68911087 52.5 7.42538292 39.862149 0.531728645 28.9223138 10.7512887 21 12.5024337 8.18844449 25.423436 8.68860662 35 0 44.576564 8.68860662 57.4975663 8.18844449 59.2487113 21 69.4682714 28.9223138 62.5746171 39.862149 65.3108891 52.5 52.9980531 56.4492444 46.970705 67.8892417"></polygon>
                    <polygon id="Star-2" fill="#F79258" points="35 56.4711221 26.3175911 60 21.9459271 51.7430236 13.015369 48.8926018 15 39.7710578 10 31.8750803 17.4122952 26.1570407 18.6824089 16.9101232 28.0540729 17.2711221 35 11 41.9459271 17.2711221 51.3175911 16.9101232 52.5877048 26.1570407 60 31.8750803 55 39.7710578 56.984631 48.8926018 48.0540729 51.7430236 43.6824089 60"></polygon>
                </g>
            </g>
        </g>
    </g>
</svg>