<?xml version="1.0" encoding="UTF-8"?>
<svg width="122px" height="72px" viewBox="0 0 122 72" version="1.1" xmlns="http://www.w3.org/2000/svg" xmlns:xlink="http://www.w3.org/1999/xlink">
    <!-- Generator: sketchtool 50.2 (55047) - http://www.bohemiancoding.com/sketch -->
    <title>74E99433-45D3-42D8-B8CD-0DCC7C1E4C1A@1x</title>
    <desc>Created with sketchtool.</desc>
    <defs></defs>
    <g id="Page-1" stroke="none" stroke-width="1" fill="none" fill-rule="evenodd">
        <g id="02-2-PrintLab----Design2" transform="translate(-654.000000, -1371.000000)" fill-rule="nonzero">
            <g id="02-DESIGN&amp;CONTOUR" transform="translate(0.000000, 485.000000)">
                <g id="2-nd-form" transform="translate(622.000000, 328.000000)">
                    <g id="Shapes-2" transform="translate(33.000000, 559.000000)">
                        <g id="Cloud">
                            <g id="Group-4">
                                <g>
                                    <path d="M98.8382991,37.3638458 L94.9103994,38.0420956 C93.836375,29.3081957 86.1259371,18.9027898 76.3983449,18.9027898 C70.7808543,18.9027898 67.0728239,22.0325061 64.3263901,23.4486862 C60.7105081,16.5004046 49.856593,8.04320175 40.9524195,8.04320175 C28.5653385,8.04320175 20.6743603,18.6273913 20.6743603,30.0989236 C20.6743603,31.69035 20.8738219,33.2438854 21.2420589,34.7358477 C14.4143325,36.204128 7.7780059,43.5631867 7.7780059,50.3362219 C7.7780059,57.4751022 12.4962767,62.746485 22.3821884,62.746485 C23.1777075,62.746485 23.938583,62.9126214 24.7403097,62.9126214 L30.7334897,62.9126214 L89.0539118,62.8131572 L94.9103994,62.746485 C103.420764,62.746485 111.308952,58.8917387 111.308952,50.3362219 C111.308952,41.7807051 106.21756,36.8428231 98.8382991,37.3638458 Z" id="Shape" fill="#FFD8C2"></path>
                                    <path d="M100.469629,32.6440115 L99.9897778,32.6440115 C98.6810926,21.2519681 88.9407359,12.3990407 77.0877875,12.3990407 C72.9934725,12.3990407 69.1546628,13.4739949 65.8081679,15.3211863 C61.4022612,6.25821038 52.0295827,0 41.1799596,0 C26.0864574,0 13.8346717,12.139569 13.8346717,27.1024373 C13.8346717,29.1782109 14.0777132,31.2045613 14.5264052,33.1505991 C6.20690674,35.0657474 0,42.4483352 0,51.2827289 C0,60.5943119 6.9076479,68.3143117 15.9156387,69.686213 C16.8525028,69.8288957 17.8120859,69.9029126 18.7889797,69.9029126 L21.8363466,69.7731768 L97.1542933,69.7731768 L100.463397,69.9029126 C110.833169,69.9029126 119.246145,61.5627507 119.246145,51.2827289 C119.246145,41.0027071 110.839401,32.6501894 100.469629,32.6440115 Z" id="Shape" stroke="#ABC6D8" stroke-width="2" stroke-linecap="round" stroke-dasharray="5,5"></path>
                                </g>
                            </g>
                        </g>
                    </g>
                </g>
            </g>
        </g>
    </g>
</svg>