<?xml version="1.0" encoding="UTF-8"?>
<svg width="122px" height="72px" viewBox="0 0 122 72" version="1.1" xmlns="http://www.w3.org/2000/svg" xmlns:xlink="http://www.w3.org/1999/xlink">
    <!-- Generator: sketchtool 51.1 (57501) - http://www.bohemiancoding.com/sketch -->
    <title>650F77D0-2CBF-4225-A21D-9B6FFF1DCA1E@1x</title>
    <desc>Created with sketchtool.</desc>
    <defs></defs>
    <g id="Page-1" stroke="none" stroke-width="1" fill="none" fill-rule="evenodd">
        <g id="contours" transform="translate(-666.000000, -331.000000)">
            <g id="Cloud-Copy" transform="translate(667.000000, 332.000000)">
                <g id="Cloud_hovered">
                    <g id="Group-4">
                        <path d="M99.0602932,37.320644 L95.1323935,37.9988939 C94.0583691,29.264994 86.3479312,18.8595881 76.620339,18.8595881 C71.0028484,18.8595881 67.294818,21.9893044 64.5483842,23.4054844 C60.9325022,16.4572029 50.0785871,8 41.1744136,8 C28.7873326,8 20.8963544,18.5841895 20.8963544,30.0557218 C20.8963544,31.6471483 21.095816,33.2006836 21.464053,34.6926459 C14.6363266,36.1609263 8,43.519985 8,50.2930202 C8,57.4319004 12.7182708,62.7032832 22.6041825,62.7032832 C23.3997016,62.7032832 24.1605771,62.8694196 24.9623038,62.8694196 L30.9554838,62.8694196 L89.2759059,62.7699555 L95.1323935,62.7032832 C103.642758,62.7032832 111.530946,58.8485369 111.530946,50.2930202 C111.530946,41.7375034 106.439555,36.7996214 99.0602932,37.320644 Z" id="Shape" fill="#F79258" fill-rule="nonzero"></path>
                        <path d="M100.469629,32.6440115 L99.9897778,32.6440115 C98.6810926,21.2519681 88.9407359,12.3990407 77.0877875,12.3990407 C72.9934725,12.3990407 69.1546628,13.4739949 65.8081679,15.3211863 C61.4022612,6.25821038 52.0295827,0 41.1799596,0 C26.0864574,0 13.8346717,12.139569 13.8346717,27.1024373 C13.8346717,29.1782109 14.0777132,31.2045613 14.5264052,33.1505991 C6.20690674,35.0657474 0,42.4483352 0,51.2827289 C0,60.5943119 6.9076479,68.3143117 15.9156387,69.686213 C16.8525028,69.8288957 17.8120859,69.9029126 18.7889797,69.9029126 L21.8363466,69.7731768 L97.1542933,69.7731768 L100.463397,69.9029126 C110.833169,69.9029126 119.246145,61.5627507 119.246145,51.2827289 C119.246145,41.0027071 110.839401,32.6501894 100.469629,32.6440115 Z" id="Shape" stroke="#231F20" stroke-width="2"></path>
                    </g>
                </g>
            </g>
        </g>
    </g>
</svg>