<?xml version="1.0" encoding="UTF-8"?>
<svg width="41px" height="40px" viewBox="0 0 41 40" version="1.1" xmlns="http://www.w3.org/2000/svg" xmlns:xlink="http://www.w3.org/1999/xlink">
    <!-- Generator: sketchtool 50.2 (55047) - http://www.bohemiancoding.com/sketch -->
    <title>B3DD6D09-4360-4D9E-9B12-2CA7BB81DC26@1x</title>
    <desc>Created with sketchtool.</desc>
    <defs></defs>
    <g id="Page-1" stroke="none" stroke-width="1" fill="none" fill-rule="evenodd">
        <g id="02-3-PrintLab----Payment&amp;Delivery" transform="translate(-716.000000, -1182.000000)" fill-rule="nonzero">
            <g id="03-PAYMENT" transform="translate(622.000000, 901.000000)">
                <g id="Cashless" transform="translate(0.000000, 232.000000)">
                    <g id="Group-4">
                        <g id="atm" transform="translate(94.000000, 49.000000)">
                            <path d="M38.4376627,0 L2.56246747,0 C1.12742322,0 0,1.12250626 0,2.5509975 L0,12.4490025 C0,13.8776233 1.12755335,15 2.56246747,15 L7.17496096,15 L33.466278,15 L38.4375325,15 C39.8725768,15 41,13.8774937 41,12.4490025 L41,2.5509975 C41.0001301,1.17341739 39.8725768,0 38.4376627,0 Z" id="Shape" fill="#9CC5CB"></path>
                            <polyline id="Shape" fill="#3F4B59" points="33.7717801 9 37 9 37 5 4 5 4 9 7.22821986 9"></polyline>
                            <path d="M33.120306,7 L7.03161059,7 L5.00528667,36.7566655 C4.90393189,38.5070884 6.27170696,39.8971262 8.09544994,39.9484978 L31.9045631,40 C33.7281774,40 35.0959525,38.5584599 34.9947263,36.8595393 L33.120306,7 Z" id="Shape" fill="#FF7058"></path>
                            <polygon id="Shape" fill="#324A5E" points="11.4965154 7 10 39.9484978 16.4205891 40 17 7"></polygon>
                            <polygon id="Shape" fill="#FFFFFF" points="22.8722922 24 23 37 21.0425693 37 21 24"></polygon>
                            <polygon id="Shape" fill="#FFD05B" points="23 7 23.0490989 12.9486979 31 13 30.7055314 7"></polygon>
                            <g id="Group" transform="translate(23.000000, 7.000000)" fill="#2B3B4E">
                                <polygon id="Shape" points="3.59657143 3.88953191 3.54653968 1.82808511 1.34603175 1.82808511 1.296 0.0181276596 0.845968254 0.0181276596 0.845968254 2.23034043 3.09650794 2.23034043 3.1464127 3.88953191 0.0457142857 3.88953191 0.0457142857 4.29165957 4.19669841 4.29165957 4.24673016 5.85038298 4.74692063 5.85038298 4.69688889 3.88953191"></polygon>
                                <polygon id="Shape" points="7.89765079 1.07387234 5.79707937 1.07387234 5.74704762 0.0181276596 5.24698413 0.0181276596 5.29701587 1.07387234 5.29701587 1.27506383 5.39707937 2.88395745 4.3968254 2.88395745 4.44673016 3.28621277 6.2472381 3.28621277 6.34730159 5.90068085 6.84736508 5.90068085 6.69739683 2.88395745 5.84711111 2.88395745 5.79707937 1.47612766 7.94768254 1.47612766"></polygon>
                            </g>
                            <g id="Group" transform="translate(26.000000, 17.000000)" fill="#324A5E">
                                <polygon id="Shape" points="5.95085106 20.9914151 5.80008511 17.5063396 4.04029787 17.5063396 4.19119149 20.9914151"></polygon>
                                <polygon id="Shape" points="1.92868085 20.9914151 1.62702128 11.3682642 0.118595745 11.3682642 0.319787234 20.9914151"></polygon>
                                <polygon id="Shape" points="5.64919149 14.6973585 5.49842553 11.3682642 3.78893617 11.3682642 3.93982979 14.6973585"></polygon>
                                <polygon id="Shape" points="3.53757447 5.59432075 3.68834043 8.71539623 5.34753191 8.71539623 5.19676596 5.59432075"></polygon>
                                <polygon id="Shape" points="3.43697872 3.04539623 5.09617021 3.09743396 4.9452766 0.0804339623 3.33638298 0.0804339623"></polygon>
                            </g>
                        </g>
                    </g>
                </g>
            </g>
        </g>
    </g>
</svg>