<?xml version="1.0" encoding="UTF-8"?>
<svg width="241px" height="241px" viewBox="0 0 241 241" version="1.1" xmlns="http://www.w3.org/2000/svg" xmlns:xlink="http://www.w3.org/1999/xlink">
    <!-- Generator: sketchtool 50.2 (55047) - http://www.bohemiancoding.com/sketch -->
    <title>8C707259-F0C4-4984-BDA2-6190ED7D5D5D</title>
    <desc>Created with sketchtool.</desc>
    <defs>
        <linearGradient x1="50%" y1="34.6846071%" x2="-50.1538173%" y2="150.976849%" id="linearGradient-1">
            <stop stop-color="#FFF09D" offset="0%"></stop>
            <stop stop-color="#EECD5C" offset="100%"></stop>
        </linearGradient>
        <circle id="path-2" cx="96" cy="96" r="96"></circle>
        <path d="M29.2784581,111.56133 L4.18277148,111.56133 C1.87277727,111.56133 0,109.68173 0,107.36332 L0,40.1980093 C0,37.8795998 1.87277727,36 4.18277148,36 L29.2784581,36 C31.5884523,36 33.4612296,37.8795998 33.4612296,40.1980093 L33.4612296,107.36332 C33.4612296,109.682203 31.5884523,111.56133 29.2784581,111.56133 Z" id="path-4"></path>
        <filter x="-25.4%" y="-8.6%" width="150.8%" height="122.5%" filterUnits="objectBoundingBox" id="filter-5">
            <feOffset dx="0" dy="2" in="SourceAlpha" result="shadowOffsetOuter1"></feOffset>
            <feGaussianBlur stdDeviation="2.5" in="shadowOffsetOuter1" result="shadowBlurOuter1"></feGaussianBlur>
            <feColorMatrix values="0 0 0 0 1   0 0 0 0 0.784313725   0 0 0 0 0.31372549  0 0 0 1 0" type="matrix" in="shadowBlurOuter1"></feColorMatrix>
        </filter>
        <path d="M121.435909,49.344803 C120.891273,43.8828516 115.906623,39.9326185 110.437171,39.9326185 L74.8332014,39.9326185 C84.5697586,32.0212766 91.1807802,21.4085125 92.1376634,12.6805496 C92.8471986,6.20857921 88.3883397,0.0609875879 81.9012277,0.00046211077 C76.0840752,-0.0534433923 71.3491289,4.61552974 71.3491289,10.4411069 C71.3491289,14.2206392 63.1758107,25.4367667 47.8581415,30.4272815 C47.8355269,30.4348471 47.8138545,30.44194 47.7912398,30.4495057 C44.2082282,31.6392096 42,35.2764125 42,39.0639833 L42,107.097457 C42,109.415866 43.8727773,111.295466 46.1827715,111.295466 L100.130535,111.295466 C104.297288,111.295466 108.159685,108.437056 108.828702,104.309029 C109.680993,99.0489868 105.658409,94.5039018 100.578117,94.5039018 L104.313778,94.5039018 C108.480531,94.5039018 112.342928,91.6454916 113.011945,87.5174649 C113.864235,82.2574226 109.841651,77.7123376 104.76136,77.7123376 L108.497021,77.7123376 C112.663773,77.7123376 116.52617,74.8539274 117.195188,70.7259007 C118.047478,65.4658584 114.024894,60.9207734 108.944603,60.9207734 L111.035988,60.9207734 C117.164564,60.922192 122.062524,55.6271584 121.435909,49.344803 Z" id="path-6"></path>
        <filter x="-5.0%" y="-1.8%" width="110.1%" height="107.2%" filterUnits="objectBoundingBox" id="filter-7">
            <feOffset dx="0" dy="2" in="SourceAlpha" result="shadowOffsetOuter1"></feOffset>
            <feGaussianBlur stdDeviation="1" in="shadowOffsetOuter1" result="shadowBlurOuter1"></feGaussianBlur>
            <feColorMatrix values="0 0 0 0 1   0 0 0 0 0.784313725   0 0 0 0 0.31372549  0 0 0 1 0" type="matrix" in="shadowBlurOuter1"></feColorMatrix>
        </filter>
        <linearGradient x1="50%" y1="0%" x2="0%" y2="105.97326%" id="linearGradient-8">
            <stop stop-color="#FFFFFF" offset="0%"></stop>
            <stop stop-color="#FFC850" offset="100%"></stop>
        </linearGradient>
    </defs>
    <g id="Page-1" stroke="none" stroke-width="1" fill="none" fill-rule="evenodd">
        <g id="01-PrintLab---Main-Page" transform="translate(-468.000000, -3684.000000)">
            <g id="05-GUARANTEE" transform="translate(468.000000, 3665.000000)">
                <g id="recommended" transform="translate(0.000000, 19.000000)">
                    <g>
                        <path d="M122.261374,5.90472759 L137.034886,0.322234013 C138.68282,-0.300501148 140.537394,-0.00678479107 141.911849,1.09465155 L154.236289,10.969452 C155.183345,11.7282192 156.374697,12.1156047 157.586759,12.0581794 L173.3624,11.3140038 C175.122362,11.2311608 176.794773,12.0835972 177.762069,13.5559446 L186.432435,26.7557647 C187.098481,27.7701217 188.111906,28.5062954 189.282547,28.8263709 L204.515937,32.993001 C206.215178,33.4580519 207.542563,34.7849532 208.007147,36.4841777 L212.173818,51.7174188 C212.493897,52.8880479 213.230078,53.9014635 214.244445,54.567503 L227.444394,63.2377839 C228.916756,64.205071 229.7692,65.8774655 229.686356,67.6374102 L228.942174,83.4128969 C228.885218,84.6254183 229.272137,85.8162875 230.030912,86.7633344 L239.905808,99.0885953 C241.007256,100.463508 241.300975,102.317592 240.678234,103.965511 L235.095685,118.738879 C234.666874,119.873735 234.666874,121.126265 235.095685,122.261592 L240.678234,137.03496 C241.300975,138.682878 241.007256,140.537433 239.905808,141.911875 L230.030912,154.237136 C229.272137,155.184183 228.884748,156.375523 228.942174,157.587574 L229.686356,173.363061 C229.7692,175.123005 228.916756,176.7954 227.444394,177.762687 L214.244445,186.432968 C213.230078,187.099007 212.493897,188.112423 212.173818,189.283052 L208.007147,204.516293 C207.542092,206.215517 206.215178,207.542889 204.515937,208.00747 L189.282547,212.1741 C188.111906,212.494175 187.098481,213.230349 186.432435,214.244706 L177.762069,227.444526 C176.794773,228.916874 175.122362,229.76931 173.3624,229.686467 L157.586759,228.942291 C156.375167,228.885337 155.183345,229.272251 154.236289,230.031019 L141.910908,239.905819 C140.535982,241.007255 138.681879,241.300972 137.033945,240.678237 L122.260433,235.095743 C121.125565,234.666936 119.873022,234.666936 118.737685,235.095743 L103.964172,240.678237 C102.316238,241.300972 100.461665,241.007255 99.0872095,239.905819 L86.7618282,230.031019 C85.814772,229.272251 84.6234205,228.884866 83.4113579,228.942291 L67.6357172,229.686467 C65.8757554,229.76931 64.2033444,228.916874 63.236048,227.444526 L54.5656824,214.244706 C53.8996364,213.230349 52.8862109,212.494175 51.7155703,212.1741 L36.4821804,208.00747 C34.7829394,207.542419 33.4555545,206.215517 32.9909697,204.516293 L28.8242989,189.283052 C28.5042203,188.112423 27.7680394,187.099007 26.7536725,186.432968 L13.5537234,177.762216 C12.0813617,176.794929 11.2289169,175.122534 11.3117608,173.36259 L12.0559436,157.587103 C12.1133695,156.375052 11.7259802,155.183713 10.9672056,154.236666 L1.09419153,141.910463 C-0.00725556121,140.535551 -0.300974787,138.681466 0.321766456,137.033548 L5.90431455,122.26018 C6.33312579,121.125324 6.33312579,119.872793 5.90431455,118.737467 L0.321766456,103.964099 C-0.300974787,102.31618 -0.00725556121,100.461625 1.09419153,99.0871832 L10.9690884,86.7628637 C11.727863,85.8158168 12.1152523,84.6244769 12.0578265,83.4124262 L11.3136436,67.6369395 C11.2307997,65.8769948 12.0832445,64.2046003 13.5556062,63.2373132 L26.7555553,54.5670323 C27.7699222,53.9009928 28.5061031,52.8875772 28.8261817,51.7169481 L32.9928525,36.483707 C33.457908,34.7844825 34.7848222,33.4571105 36.4840633,32.9925303 L51.7174531,28.8259002 C52.8880937,28.5058247 53.9015192,27.769651 54.5675652,26.755294 L63.2379308,13.5554739 C64.2052273,12.0831265 65.8776382,11.2306901 67.6376,11.3135331 L83.4132408,12.0577087 C84.6253033,12.115134 85.8166548,11.7277485 86.763711,10.9689813 L99.0890923,1.09418085 C100.464018,-0.00725549036 102.318121,-0.300971847 103.966055,0.321763313 L118.739567,5.90425689 C119.873493,6.33353465 121.126507,6.33353465 122.261374,5.90472759 Z" id="Shape" fill="#FFC850" fill-rule="nonzero"></path>
                        <g id="Path-3" transform="translate(24.000000, 24.000000)">
                            <mask id="mask-3" fill="white">
                                <use xlink:href="#path-2"></use>
                            </mask>
                            <use id="Mask" fill="url(#linearGradient-1)" fill-rule="nonzero" xlink:href="#path-2"></use>
                        </g>
                        <g id="Group" transform="translate(62.000000, 56.000000)" fill-rule="nonzero">
                            <g id="Shape">
                                <use fill="black" fill-opacity="1" filter="url(#filter-5)" xlink:href="#path-4"></use>
                                <use fill="#FFFFFF" fill-rule="evenodd" xlink:href="#path-4"></use>
                            </g>
                            <g id="Shape">
                                <use fill="black" fill-opacity="1" filter="url(#filter-7)" xlink:href="#path-6"></use>
                                <use fill="#FFFFFF" fill-rule="evenodd" xlink:href="#path-6"></use>
                            </g>
                        </g>
                        <g id="Group" transform="translate(62.000000, 92.000000)" fill="url(#linearGradient-8)" fill-rule="nonzero" opacity="0.429073661">
                            <path d="M17.067008,67.2322312 C12.4470196,67.2322312 8.70193616,63.4735045 8.70193616,58.8366856 L8.70193616,0.0669201408 L4.51916468,0.0669201408 C2.20917047,0.0669201408 0.336393201,1.94651992 0.336393201,4.26492941 L0.336393201,71.4302405 C0.336393201,73.74865 2.20917047,75.6282498 4.51916468,75.6282498 L29.6148513,75.6282498 C31.9248455,75.6282498 33.7976228,73.74865 33.7976228,71.4302405 L33.7976228,67.2322312 L17.067008,67.2322312 Z" id="Shape"></path>
                        </g>
                    </g>
                </g>
            </g>
        </g>
    </g>
</svg>