<?xml version="1.0" encoding="UTF-8"?>
<svg width="645px" height="790px" viewBox="0 0 645 790" version="1.1" xmlns="http://www.w3.org/2000/svg" xmlns:xlink="http://www.w3.org/1999/xlink">
    <!-- Generator: sketchtool 50.2 (55047) - http://www.bohemiancoding.com/sketch -->
    <title>F1DACDFE-811D-4AEC-959A-D69AE850B8FA</title>
    <desc>Created with sketchtool.</desc>
    <defs>
        <linearGradient x1="43.2587117%" y1="100%" x2="43.258711%" y2="5.24899613%" id="linearGradient-1">
            <stop stop-color="#F5FAFE" offset="0%"></stop>
            <stop stop-color="#B2DCF5" offset="100%"></stop>
        </linearGradient>
    </defs>
    <g id="Page-1" stroke="none" stroke-width="1" fill="none" fill-rule="evenodd">
        <g id="01-PrintLab---Main-Page" transform="translate(-1275.000000, -1737.000000)" fill="url(#linearGradient-1)">
            <g id="03-STICKER-BASE" transform="translate(-210.000000, 1557.000000)">
                <g id="image">
                    <g id="blue_path" transform="translate(1485.000000, 180.000000)">
                        <path d="M1.03403046e-12,117.175397 C117.877833,5.09951207 211.125972,-26.5776438 279.744417,22.1439291 C382.672085,95.2262883 523.878233,-104.929992 638.047484,97.9691789 C684.256146,180.090233 581.240288,329.315496 591.423759,395 C606.400921,491.604346 712.668166,576.643938 681.208866,674.13263 C649.749566,771.621321 552.260762,800.988803 425.8436,786.520938 C299.426438,772.053073 236.455157,707.595662 180.322586,751.550624 C142.900871,780.853932 82.7933429,792.510703 6.82121026e-13,786.520938 L1.03403046e-12,117.175397 Z" id="Path-6-Copy" transform="translate(343.500000, 395.000000) rotate(-180.000000) translate(-343.500000, -395.000000) "></path>
                    </g>
                </g>
            </g>
        </g>
    </g>
</svg>