<svg xmlns="http://www.w3.org/2000/svg" viewBox="0 0 168.3 215.3"><defs><style>.cls-1{fill:#111922;}.cls-2{fill:#fff;}.cls-3{fill:#f7b600;}.cls-4{fill:#1a1f71;}.cls-5{fill:#ff5f00;}.cls-6{fill:#eb001b;}.cls-7{fill:#f79e1b;}</style></defs><title>mcvs_acc_vrt</title><g id="Layer_2" data-name="Layer 2"><g id="Layer_1-2" data-name="Layer 1"><rect class="cls-1" width="168.3" height="215.3"/><rect class="cls-2" x="2.8" y="109.2" width="162.9" height="103.5"/><rect class="cls-3" x="5.5" y="195.8" width="157.5" height="14.1"/><rect class="cls-4" x="5.5" y="111.9" width="157.5" height="14.1"/><path class="cls-4" d="M68.5,141.6,52.2,180.4H41.6l-8-31c-.5-1.9-.9-2.6-2.4-3.4a44.13,44.13,0,0,0-9.9-3.3l.2-1.1H38.6a4.59,4.59,0,0,1,4.6,4l4.2,22.5,10.4-26.4H68.5Zm41.6,26.1c0-10.2-14.2-10.8-14.1-15.4,0-1.4,1.4-2.9,4.3-3.3a19.47,19.47,0,0,1,9.9,1.7l1.8-8.2a26.34,26.34,0,0,0-9.4-1.7c-9.9,0-16.9,5.3-17,12.8-.1,5.6,5,8.7,8.8,10.6s5.2,3.1,5.2,4.8c0,2.6-3.1,3.8-6,3.8a20.26,20.26,0,0,1-10.3-2.5l-1.8,8.5c2.3,1.1,6.7,2,11.2,2.1,10.4.1,17.3-5.1,17.4-13.2m26.2,12.7h9.3l-8.1-38.8h-8.6a4.61,4.61,0,0,0-4.3,2.8l-15.1,36H120l2.1-5.8H135Zm-11.2-13.8,5.3-14.6,3,14.6Zm-42.3-25-8.3,38.8h-10l8.3-38.8Z"/><path id="_Compound_Path_" data-name="&lt;Compound Path&gt;" class="cls-2" d="M47,97.6v-6a3.49,3.49,0,0,0-3.7-3.8,3.94,3.94,0,0,0-3.4,1.7,3.5,3.5,0,0,0-3.2-1.7,3.4,3.4,0,0,0-2.9,1.4V88H31.9v9.6h1.9V92.1a2.24,2.24,0,0,1,2.4-2.5c1.4,0,2.2.9,2.2,2.5v5.5h1.9V92.1a2.24,2.24,0,0,1,2.4-2.5c1.4,0,2.2.9,2.2,2.5v5.5ZM78.2,88H74.7V85.1H72.8V88h-2v1.7h2v4.5c0,2.2.8,3.5,3.2,3.5a5.6,5.6,0,0,0,2.6-.7L78,95.3a3.29,3.29,0,0,1-1.8.5,1.4,1.4,0,0,1-1.5-1.6V89.7h3.5V88ZM96,87.8a3,3,0,0,0-2.6,1.4V88H91.5v9.6h1.9V92.2c0-1.6.8-2.6,2.1-2.6a5.86,5.86,0,0,1,1.3.2l.6-1.8a3.41,3.41,0,0,0-1.4-.2Zm-26.9,1a6.86,6.86,0,0,0-3.9-1c-2.4,0-3.9,1.1-3.9,3,0,1.6,1.1,2.5,3.2,2.8l1,.1c1.1.2,1.8.6,1.8,1.1,0,.7-.8,1.2-2.3,1.2a5.28,5.28,0,0,1-3.2-1l-1,1.5a7.24,7.24,0,0,0,4.1,1.2c2.8,0,4.3-1.3,4.3-3.1s-1.2-2.5-3.3-2.8l-1-.1c-.9-.1-1.7-.4-1.7-1s.8-1.2,1.9-1.2a7.21,7.21,0,0,1,3,.8Zm29,4a4.72,4.72,0,0,0,5,5,5,5,0,0,0,3.4-1.1l-1-1.5a4,4,0,0,1-2.5.9,3.21,3.21,0,0,1,0-6.4,4,4,0,0,1,2.5.9l1-1.5a5,5,0,0,0-3.4-1.1,4.52,4.52,0,0,0-5,4.8Zm-13.4-5c-2.8,0-4.7,2-4.7,5a4.7,4.7,0,0,0,4.9,5,6.12,6.12,0,0,0,3.9-1.3l-1-1.4a4.78,4.78,0,0,1-2.8,1,2.81,2.81,0,0,1-2.9-2.5h7.1v-.8c0-3-1.8-5-4.5-5Zm-.1,1.7a2.39,2.39,0,0,1,2.5,2.4H81.9a2.79,2.79,0,0,1,2.7-2.4ZM58.7,92.8V88H56.8v1.2a3.68,3.68,0,0,0-3.1-1.4,5,5,0,0,0,0,10,3.68,3.68,0,0,0,3.1-1.4v1.2h1.9Zm-7.7,0A3,3,0,1,1,54,96a2.94,2.94,0,0,1-3-3.2Zm73.9-5a3,3,0,0,0-2.6,1.4V88h-1.9v9.6h1.9V92.2c0-1.6.8-2.6,2.1-2.6a5.86,5.86,0,0,1,1.3.2l.6-1.8a3.41,3.41,0,0,0-1.4-.2Zm15.4,8.4a.6.6,0,0,1,.4.1c.1,0,.2.1.3.2s.2.2.2.3.1.2.1.4a.6.6,0,0,1-.1.4c-.1.1-.1.2-.2.3s-.2.2-.3.2-.2.1-.4.1a.6.6,0,0,1-.4-.1c-.1-.1-.2-.1-.3-.2s-.2-.2-.2-.3-.1-.2-.1-.4a.6.6,0,0,1,.1-.4c.1-.1.1-.2.2-.3s.2-.2.3-.2A.6.6,0,0,1,140.3,96.2Zm0,1.7a.37.37,0,0,0,.3-.1.22.22,0,0,0,.2-.2l.2-.2c0-.1.1-.2.1-.3a.37.37,0,0,0-.1-.3.21.21,0,0,0-.2-.2l-.2-.2c-.1,0-.2-.1-.3-.1a.37.37,0,0,0-.3.1.22.22,0,0,0-.2.2l-.2.2c0,.1-.1.2-.1.3a.37.37,0,0,0,.1.3.21.21,0,0,0,.2.2l.2.2A.37.37,0,0,0,140.3,97.9Zm.1-1.2a.37.37,0,0,1,.3.1c.1.1.1.1.1.2s0,.1-.1.2a.35.35,0,0,1-.2.1l.3.3h-.2l-.3-.3h-.1v.3H140v-.9Zm-.3.2v.2h.3v-.2h-.3Zm-22.6-4.1V88h-1.9v1.2a3.68,3.68,0,0,0-3.1-1.4,5,5,0,0,0,0,10,3.68,3.68,0,0,0,3.1-1.4v1.2h1.9Zm-7.7,0a3,3,0,1,1,3,3.2,2.94,2.94,0,0,1-3-3.2Zm27,0V84.2h-1.9v5a3.68,3.68,0,0,0-3.1-1.4,5,5,0,0,0,0,10,3.68,3.68,0,0,0,3.1-1.4v1.2h1.9Zm-7.7,0a3,3,0,1,1,3,3.2A2.94,2.94,0,0,1,129.1,92.8Z"/><g id="_Group_" data-name="&lt;Group&gt;"><rect class="cls-5" x="66.9" y="15.2" width="34.7" height="56.6"/><path id="_Path_" data-name="&lt;Path&gt;" class="cls-6" d="M70.4,43.5A36.1,36.1,0,0,1,84.1,15.2,36,36,0,1,0,61.9,79.5a35.78,35.78,0,0,0,22.2-7.7A36.1,36.1,0,0,1,70.4,43.5Z"/><path class="cls-7" d="M139,65.8V64.6h.5v-.2h-1.2v.2h.5v1.2Zm2.3,0V64.4h-.4l-.4,1-.4-1h-.4v1.4h.3V64.7l.4.9h.3l.4-.9v1.1Z"/><path class="cls-7" d="M142.4,43.5A36,36,0,0,1,84.2,71.8a36.08,36.08,0,0,0,0-56.6,36,36,0,0,1,58.2,28.3Z"/></g></g></g></svg>