<?xml version="1.0" encoding="UTF-8"?>
<svg width="191px" height="165px" viewBox="0 0 191 165" version="1.1" xmlns="http://www.w3.org/2000/svg" xmlns:xlink="http://www.w3.org/1999/xlink">
    <!-- Generator: sketchtool 50.2 (55047) - http://www.bohemiancoding.com/sketch -->
    <title>92FCA429-FD71-41DF-83A6-13CDD40EF805</title>
    <desc>Created with sketchtool.</desc>
    <defs>
        <linearGradient x1="50%" y1="0%" x2="50%" y2="100%" id="linearGradient-1">
            <stop stop-color="#E1FFDF" offset="0%"></stop>
            <stop stop-color="#C8FCC8" offset="52.1956639%"></stop>
            <stop stop-color="#B1F9B2" offset="100%"></stop>
        </linearGradient>
    </defs>
    <g id="Page-1" stroke="none" stroke-width="1" fill="none" fill-rule="evenodd" opacity="0.6">
        <g id="01-PrintLab---Main-Page" transform="translate(-1115.000000, -7810.000000)" fill="url(#linearGradient-1)">
            <g id="09-FAQ" transform="translate(-1.000000, 7099.000000)">
                <g id="Opened-question" transform="translate(595.000000, 514.000000)">
                    <g id="Base">
                        <g id="Static">
                            <g id="Path-6-Copy-3">
                                <g id="green-shape-2" transform="translate(521.000000, 197.000000)">
                                    <path d="M44.9547612,152.309624 C40.5143395,155.746073 36.2122781,158.374284 32.0485769,160.194258 C26.1013593,162.793816 15.7590355,164.39573 1.02160541,165 C8.98716064,155.778002 14.3765395,148.157089 17.1897419,142.137261 C18.3910017,139.566747 19.5395296,136.704297 20.6353255,133.549912 C7.71583,119.496708 0,101.721405 0,82.3913403 C0,36.8878595 42.7568064,0 95.5,0 C148.243194,0 191,36.8878595 191,82.3913403 C191,127.894821 148.243194,164.782681 95.5,164.782681 C76.9387254,164.782681 59.6142271,160.214259 44.9547612,152.309624 Z" id="Combined-Shape"></path>
                                </g>
                            </g>
                        </g>
                    </g>
                </g>
            </g>
        </g>
    </g>
</svg>