<svg id="Слой_1" data-name="Слой 1" xmlns="http://www.w3.org/2000/svg" viewBox="0 0 1064.22 1470.53"><defs><style>.cls-1{fill:#3a3834;}.cls-2{fill:#f8db0c;}.cls-3{fill:#e6e6e6;}.cls-3,.cls-4{fill-rule:evenodd;}.cls-4{fill:#fff;}</style></defs><title>nakleyki-logo-header-on-white</title><path class="cls-1" d="M349.75,321.92V399.2h49.47V213.35H349.75v70.33h-49.2V213.35H251.08V399.2h49.47V321.92h49.2Zm208.84,39.31,8.29,38h52.41L564.2,213.35H504.83L449.75,399.2h51.34l8.29-38h49.2Zm-7.76-35.3H517.13L534,248.65l16.85,77.28h0Zm228.09-29.15L823,213.35H774.91L738.27,285H719.55V213.35H670.08V399.2h49.47V320.31H737.2l37.17,78.88h53.48L778.92,296.78h0ZM397.08,499.34H273.8l-11,91.45c-5.08,42.79-7.49,57.23-26.47,65.25l11.5,34c42.79-8.56,54-37.44,60.7-96l6.69-57.49h32.35V685.19h49.47V499.34h0Zm183.16,35,5.08-35H467.4V685.19H584.52v-35H516.87V607.91h55.36V574H516.87V534.37h63.38ZM722,483.3c30.22,0,45.73-18.72,47.87-44.12l-25.4-4.28c-2.94,11.23-10.16,15.78-22.46,15.78-12,0-19-4.55-22.2-15.78l-25.4,4.28C676.5,464.58,692,483.3,722,483.3h0ZM795.5,685.19V499.34H737.74L689.87,636.52c3.48-18.45,7.22-38.51,7.22-72.2v-65h-48.4V685.19h59.1l46.53-138a369,369,0,0,0-7.22,74.87v63.11h48.4ZM359.91,868.77L404,785.34H355.9L319.26,857H300.54V785.34H251.08V971.19h49.47V892.3h17.65l37.17,78.88h53.48L359.91,868.77h0ZM608.85,971.19V785.34H551.09L503.23,922.52c3.48-18.45,7.22-38.51,7.22-72.2v-65H462V971.19h59.1l46.53-138a369.09,369.09,0,0,0-7.22,74.87v63.11h48.4Z"/><path class="cls-2" d="M349.75,1179.9v77.28h49.47V1071.33H349.75v70.33h-49.2v-70.33H251.08v185.85h49.47V1179.9h49.2Zm208.84,39.31,8.29,38h52.41L564.2,1071.33H504.83l-55.09,185.85h51.34l8.29-38h49.2Zm-7.76-35.3H517.13L534,1106.63l16.85,77.28h0Z"/><path class="cls-1" d="M22.13,0h1020a22.13,22.13,0,0,1,22.13,22.13V1448.4a22.13,22.13,0,0,1-22.13,22.13H22.13A22.13,22.13,0,0,1,0,1448.4V22.13A22.13,22.13,0,0,1,22.13,0h0ZM1020,44.26H44.26v1382H1020V44.26h0Z"/><polygon class="cls-3" points="1042.09 1195.99 1042.09 1448.4 789.68 1448.4 789.68 1195.99 1042.09 1195.99 1042.09 1195.99"/><path class="cls-1" d="M1064.22,1196V1448.4a22.13,22.13,0,0,1-22.13,22.13H789.68a22.13,22.13,0,0,1-22.13-22.13V1196a22.13,22.13,0,0,1,22.13-22.13h252.41a22.13,22.13,0,0,1,22.13,22.13h0ZM1020,1426.27V1218.12H811.81v208.15H1020Z"/><polygon class="cls-4" points="1042.09 1195.99 789.68 1448.4 789.68 1195.99 1042.09 1195.99 1042.09 1195.99"/><path class="cls-1" d="M1057.74,1211.64L805.33,1464a22.13,22.13,0,0,1-37.78-15.65V1196a22.13,22.13,0,0,1,22.13-22.13h252.41a22.13,22.13,0,0,1,15.65,37.78h0ZM811.81,1395l176.85-176.85H811.81V1395h0Z"/></svg>