<?xml version="1.0" encoding="utf-8"?>
<!-- Generator: Adobe Illustrator 20.1.0, SVG Export Plug-In . SVG Version: 6.00 Build 0)  -->
<svg version="1.1" id="Слой_1" xmlns="http://www.w3.org/2000/svg" xmlns:xlink="http://www.w3.org/1999/xlink" x="0px" y="0px"
	 viewBox="0 0 1064.2 1470.5" style="enable-background:new 0 0 1064.2 1470.5;" xml:space="preserve">
<style type="text/css">
	.st0{fill:#3A3834;}
	.st1{fill:#FFFFFF;}
	.st2{fill-rule:evenodd;clip-rule:evenodd;fill:#E6E6E6;}
	.st3{fill-rule:evenodd;clip-rule:evenodd;fill:#FFFFFF;}
</style>
<title>nakleyki-logo-header</title>
<g>
	<g>
		<polygon class="st0" points="352.7,321.9 352.7,399.2 402.2,399.2 402.2,213.3 352.7,213.3 352.7,283.7 303.5,283.7 303.5,213.3 
			254,213.3 254,399.2 303.5,399.2 303.5,321.9 352.7,321.9 		"/>
	</g>
	<g>
		<path class="st0" d="M567.2,213.3h-59.4l-55.1,185.9H504l8.3-38h49.2l8.3,38h52.4L567.2,213.3z M520.1,325.9l16.8-77.3l16.8,77.3
			H520.1z"/>
	</g>
	<g>
		<polygon class="st0" points="778.9,296.8 823,213.3 774.9,213.3 738.3,285 719.6,285 719.6,213.3 670.1,213.3 670.1,399.2 
			719.6,399.2 719.6,320.3 737.2,320.3 774.4,399.2 827.9,399.2 778.9,296.8 		"/>
	</g>
	<g>
		<path class="st0" d="M397.1,499.3H273.8l-11,91.5c-5.1,42.8-7.5,57.2-26.5,65.3l11.5,34c42.8-8.6,54-37.4,60.7-96l6.7-57.5h32.4
			v148.7h49.5V499.3L397.1,499.3z"/>
	</g>
	<g>
		<polygon class="st0" points="586.1,534.4 591.2,499.3 473.3,499.3 473.3,685.2 590.4,685.2 590.4,650.2 522.8,650.2 522.8,607.9 
			578.1,607.9 578.1,573.9 522.8,573.9 522.8,534.4 586.1,534.4 		"/>
	</g>
	<g>
		<g>
			<path class="st0" d="M730.8,483.3c30.2,0,45.7-18.7,47.9-44.1l-25.4-4.3c-2.9,11.2-10.2,15.8-22.5,15.8c-12,0-19-4.5-22.2-15.8
				l-25.4,4.3C685.4,464.6,700.9,483.3,730.8,483.3L730.8,483.3z"/>
		</g>
		<g>
			<path class="st0" d="M804.4,685.2V499.3h-57.8l-47.9,137.2c3.5-18.5,7.2-38.5,7.2-72.2v-65h-48.4v185.9h59.1l46.5-138
				c-3.5,17.4-7.2,41.5-7.2,74.9v63.1H804.4L804.4,685.2z"/>
		</g>
	</g>
	<g>
		<polygon class="st0" points="555.8,868.8 599.9,785.3 551.8,785.3 515.2,857 496.5,857 496.5,785.3 447,785.3 447,971.2 
			496.5,971.2 496.5,892.3 514.1,892.3 551.3,971.2 604.8,971.2 555.8,868.8 		"/>
	</g>
	<g>
		<path class="st0" d="M804.8,971.2V785.3H747l-47.9,137.2c3.5-18.5,7.2-38.5,7.2-72.2v-65H658v185.9h59.1l46.5-138
			c-3.5,17.4-7.2,41.5-7.2,74.9v63.1H804.8L804.8,971.2z"/>
	</g>
	<g>
		<path class="st1" d="M545.7,1179.9v77.3h49.5v-185.9h-49.5v70.3h-49.2v-70.3H447v185.9h49.5v-77.3H545.7L545.7,1179.9z
			 M754.5,1219.2l8.3,38h52.4l-55.1-185.9h-59.4l-55.1,185.9H697l8.3-38H754.5L754.5,1219.2z M746.7,1183.9H713l16.8-77.3
			L746.7,1183.9L746.7,1183.9z"/>
	</g>
	<g>
		<path class="st0" d="M1042.1,1470.6H22.1c-12.2,0-22.1-9.9-22.1-22.1V22.1C0,9.9,9.9,0,22.1,0h1020c12.2,0,22.1,9.9,22.1,22.1
			v1426.3C1064.2,1460.6,1054.3,1470.6,1042.1,1470.6z M44.2,1426.3H1020V44.2H44.2V1426.3z"/>
	</g>
	<g>
		<polygon class="st2" points="22.1,1196 22.1,1448.4 274.5,1448.4 274.5,1196 22.1,1196 		"/>
		<path class="st0" d="M274.5,1470.6H22.1c-12.2,0-22.1-9.9-22.1-22.1V1196c0-12.2,9.9-22.1,22.1-22.1h252.4
			c12.2,0,22.1,9.9,22.1,22.1v252.4C296.7,1460.6,286.8,1470.6,274.5,1470.6z M44.2,1426.3h208.2v-208.2H44.2V1426.3z"/>
	</g>
	<g>
		<polygon class="st3" points="22.1,1196 274.5,1448.4 274.5,1196 22.1,1196 		"/>
		<path class="st0" d="M274.5,1470.6c-5.8,0-11.4-2.2-15.7-6.5L6.5,1211.7c-6.3-6.3-8.2-15.8-4.8-24.1c3.4-8.3,11.5-13.7,20.4-13.7
			h252.4c12.2,0,22.1,9.9,22.1,22.1v252.4c0,9-5.4,17-13.7,20.4C280.3,1470,277.4,1470.6,274.5,1470.6z M75.5,1218.1L252.4,1395
			v-176.9H75.5z"/>
	</g>
</g>
</svg>
