<?xml version="1.0" encoding="utf-8"?>
<!-- Generator: Adobe Illustrator 20.1.0, SVG Export Plug-In . SVG Version: 6.00 Build 0)  -->
<svg version="1.1" id="Слой_1" xmlns="http://www.w3.org/2000/svg" xmlns:xlink="http://www.w3.org/1999/xlink" x="0px" y="0px"
	 viewBox="0 0 2792.8 469.7" style="enable-background:new 0 0 2792.8 469.7;" xml:space="preserve">
<style type="text/css">
	.st0{fill:#3A3834;}
	.st1{fill:#F8DB0C;}
	.st2{fill-rule:evenodd;clip-rule:evenodd;fill:#E6E6E6;}
	.st3{fill-rule:evenodd;clip-rule:evenodd;fill:#FFFFFF;}
</style>
<title>nakleyki-logo-footer</title>
<g>
	<path class="st0" d="M569.3,255.9v72.1h45.4V154.6h-45.4v65.7h-45.1v-65.7h-45.4v173.5h45.4v-72.1H569.3L569.3,255.9z M781.4,292.6
		l7.6,35.4h48.1l-50.5-173.5h-54.4l-50.5,173.5h47.1l7.6-35.4H781.4L781.4,292.6z M774.3,259.7h-30.9l15.4-72.1L774.3,259.7
		L774.3,259.7z M1004.1,232.5l40.5-77.9h-44.1l-33.6,66.9h-17.2v-66.9h-45.4v173.5h45.4v-73.6h16.2l34.1,73.6h49L1004.1,232.5
		L1004.1,232.5z M1252.3,154.6h-113l-10.1,85.4c-4.7,39.9-6.9,53.4-24.3,60.9l10.5,31.7c39.2-8,49.5-34.9,55.7-89.6l6.1-53.7h29.7
		v138.8h45.4V154.6L1252.3,154.6z M1440.9,187.3l4.7-32.7h-108.1v173.5h107.4v-32.7h-62v-39.4h50.8v-31.7h-50.8v-36.9H1440.9
		L1440.9,187.3z M1591.5,139.6c27.7,0,41.9-17.5,43.9-41.2l-23.3-4c-2.7,10.5-9.3,14.7-20.6,14.7c-11,0-17.4-4.2-20.4-14.7l-23.3,4
		C1549.9,122.1,1564.1,139.6,1591.5,139.6L1591.5,139.6z M1659,328.1V154.6h-53l-43.9,128.1c3.2-17.2,6.6-35.9,6.6-67.4v-60.7h-44.4
		v173.5h54.2l42.7-128.8c-3.2,16.2-6.6,38.7-6.6,69.9v58.9H1659L1659,328.1z M1843.9,232.5l40.5-77.9h-44.1l-33.6,66.9h-17.2v-66.9
		h-45.4v173.5h45.4v-73.6h16.2l34.1,73.6h49L1843.9,232.5L1843.9,232.5z M2092.8,328.1V154.6h-53L1996,282.6
		c3.2-17.2,6.6-35.9,6.6-67.4v-60.7h-44.4v173.5h54.2l42.7-128.8c-3.2,16.2-6.6,38.7-6.6,69.9v58.9H2092.8L2092.8,328.1z"/>
	<path class="st1" d="M2324.4,255.9v72.1h45.4V154.6h-45.4v65.7h-45.1v-65.7h-45.4v173.5h45.4v-72.1H2324.4L2324.4,255.9z
		 M2536.5,292.6l7.6,35.4h48.1l-50.5-173.5h-54.4l-50.5,173.5h47.1l7.6-35.4H2536.5L2536.5,292.6z M2529.4,259.7h-30.9l15.4-72.1
		L2529.4,259.7L2529.4,259.7z"/>
	<g>
		<path class="st0" d="M2771.1,1c12,0,21.7,9.9,21.7,22.1v425.1c0,12.2-9.7,22.1-21.7,22.1H21.7c-12,0-21.7-9.9-21.7-22.1L0,23.1
			C0,10.9,9.7,1,21.7,1L2771.1,1L2771.1,1z M43.4,45.2V426h2705.9V45.2H43.4L43.4,45.2z"/>
		<polygon class="st2" points="21.7,196 21.7,448.2 269.5,448.2 269.5,196 21.7,196 		"/>
		<path class="st0" d="M0,196c0-12.2,9.7-22.1,21.7-22.1h247.8c12,0,21.7,9.9,21.7,22.1v252.2c0,12.2-9.7,22.1-21.7,22.1H21.7
			c-12,0-21.7-9.9-21.7-22.1L0,196L0,196z M43.4,426h204.3v-208H43.4V426L43.4,426z"/>
		<polygon class="st3" points="21.7,196 269.5,448.2 269.5,196 21.7,196 		"/>
		<path class="st0" d="M6.4,211.6c-3.9-4-6.4-9.5-6.4-15.6c0-12.2,9.7-22.1,21.7-22.1h247.8c12,0,21.7,9.9,21.7,22.1l0,252.2
			c0,5.7-2.1,11.3-6.4,15.6c-8.5,8.6-22.2,8.6-30.7,0L6.4,211.6L6.4,211.6z M247.8,394.8V218.1H74.2L247.8,394.8L247.8,394.8z"/>
	</g>
</g>
</svg>
